<svg width="38" height="38" viewBox="0 0 38 38" fill="none" xmlns="http://www.w3.org/2000/svg">
<path d="M19.1594 37.3188C29.1885 37.3188 37.3188 29.1885 37.3188 19.1594C37.3188 9.13023 29.1885 1 19.1594 1C9.13023 1 1 9.13023 1 19.1594C1 29.1885 9.13023 37.3188 19.1594 37.3188Z" fill="#10151B" stroke="#6C93C7" stroke-width="0.75" stroke-linecap="round" stroke-linejoin="round"/>
<path d="M29.0679 18.0991L19.2691 1.6947L9.25098 18.0991L19.1594 24.4122L29.0679 18.0991Z" stroke="#6C93C7" stroke-linecap="round" stroke-linejoin="round"/>
<path d="M19.2691 1.6947L19.1594 11.1278V24.4122" stroke="#6C93C7" stroke-linecap="round" stroke-linejoin="round"/>
<path d="M29.0679 18.0991L19.1594 13.7238L9.25098 18.0991" stroke="#6C93C7" stroke-linecap="round" stroke-linejoin="round"/>
<path d="M13.6507 20.9144L9.25098 22.7547" stroke="#6C93C7" stroke-linecap="round" stroke-linejoin="round"/>
<path d="M29.0801 22.7547L24.6682 20.9144" stroke="#6C93C7" stroke-linecap="round" stroke-linejoin="round"/>
<path d="M19.2204 29.4578L29.0679 22.7425L19.2204 36.6241L9.25098 22.7425L19.2204 29.4578Z" stroke="#6C93C7" stroke-linecap="round" stroke-linejoin="round"/>
<path d="M19.2203 36.6241V30.2622V29.4578" stroke="#6C93C7" stroke-linecap="round" stroke-linejoin="round"/>
</svg>
