<svg width="307" height="307" viewBox="0 0 307 307" fill="none" xmlns="http://www.w3.org/2000/svg">
<g clip-path="url(#clip0_1605_70)">
<path d="M153.4 11.74C75.29 11.74 11.74 75.29 11.74 153.4C11.74 231.51 75.29 295.06 153.4 295.06C231.51 295.06 295.06 231.51 295.06 153.4C295.06 75.29 231.51 11.74 153.4 11.74Z" fill="#10151B"/>
<path d="M153.4 0C68.81 0 0 68.81 0 153.4C0 237.99 68.81 306.8 153.4 306.8C237.99 306.8 306.8 237.99 306.8 153.4C306.8 68.81 237.98 0 153.4 0ZM182.06 74.05C182.76 74.45 183.45 74.86 184.14 75.27C185.79 76.25 187.49 77.26 189.27 78.16C203.89 85.54 215.62 96.22 224.12 109.88C232.19 122.85 235.55 136.78 235.02 155.04C234.57 170.56 231.71 182.69 226.26 192.12C217.91 206.59 205.76 218.24 190.16 226.77L189.35 227.21C186.48 228.78 183.51 230.4 180.68 232.24C177.98 234 176.45 236.49 176.13 239.64C175.96 241.34 175.85 243.15 176.01 245.02L153.57 262.78L130.18 244.27C130.32 242.76 130.33 241.16 130.18 239.42C129.86 235.51 128.04 232.6 124.75 230.76C124.03 230.36 123.34 229.92 122.64 229.48C121.66 228.87 120.66 228.24 119.57 227.68C114.39 225.01 108.43 221.8 103.22 217.66C77.9 197.5 67.08 171.41 71.06 140.1C74.17 115.64 87.56 95.62 110.85 80.58C113.46 78.89 116.22 77.48 119.15 75.99C120.71 75.19 122.33 74.37 123.91 73.5C128.2 71.14 130.42 67.54 130.39 63.04L153.61 44.07L175.96 61.76C175.59 67.01 176.74 70.98 182.04 74.04L182.06 74.05ZM11.61 153.4C11.61 77.16 72.09 14.8 147.59 11.74V34.03L47.11 116.12V193.34L61.4 204.65L147.59 272.87V295.06C72.09 292 11.61 229.64 11.61 153.4ZM159.2 295.06V273.16L259.95 193.41V113.44L159.2 33.69V11.74C234.7 14.8 295.18 77.16 295.18 153.4C295.18 229.64 234.7 292 159.2 295.06Z" fill="#F5C09A"/>
<path d="M163.69 82.9299L153.54 75.1899L143.39 82.9299V98.5199C139.53 99.1699 135.91 100.26 132.58 101.82C126.89 104.49 122.41 108.2 119.28 112.86C116.15 117.52 114.56 122.76 114.56 128.43C114.56 136.04 117.26 142.46 122.59 147.51C127.78 152.43 134.11 156.13 141.4 158.5L148.18 160.81C156 163.54 161.48 166.11 164.46 168.44C167.24 170.62 168.6 173.35 168.6 176.77C168.6 180.19 167.21 182.7 164.34 184.59C161.33 186.57 157.64 187.57 153.37 187.57C148.19 187.57 144 186.09 140.57 183.06C137.1 179.99 134.61 175.8 133.15 170.6L132.69 168.97L110.04 177.33L110.46 178.65C113.53 188.29 118.97 195.85 126.64 201.14C131.69 204.62 137.3 206.97 143.39 208.17V224.51L153.54 232.25L163.69 224.51V207.98C166.44 207.39 169.16 206.57 171.82 205.51C177.88 203.1 182.9 199.4 186.76 194.53C190.66 189.61 192.63 183.53 192.63 176.48C192.63 167.92 189.91 160.88 184.55 155.55C179.3 150.33 171.68 146.09 161.89 142.92L154.95 140.75C148.79 138.79 144.33 136.76 141.72 134.72C139.3 132.83 138.13 130.63 138.13 127.98C138.13 125.33 139.35 123.15 141.86 121.45C144.5 119.67 147.96 118.76 152.12 118.76C156.28 118.76 159.47 119.74 161.99 121.68C164.57 123.66 166.4 126.13 167.43 129.03L167.98 130.56L189.32 122.15L188.83 120.82C186.58 114.69 182.41 109.28 176.44 104.73C172.94 102.06 168.66 100.19 163.68 99.0599V82.9199L163.69 82.9299Z" fill="#F5C09A"/>
</g>
<defs>
<clipPath id="clip0_1605_70">
<rect width="306.8" height="306.8" fill="white"/>
</clipPath>
</defs>
</svg>
