<?xml version="1.0" encoding="utf-8"?>
<!-- Generator: Adobe Illustrator 28.2.0, SVG Export Plug-In . SVG Version: 6.00 Build 0)  -->
<svg version="1.1" id="Layer_1" xmlns="http://www.w3.org/2000/svg" xmlns:xlink="http://www.w3.org/1999/xlink" x="0px" y="0px"
	 viewBox="0 0 450 450" style="enable-background:new 0 0 450 450;" xml:space="preserve">
<style type="text/css">
	.st0{fill:url(#SVGID_1_);}
	.st1{opacity:0.2;}
	.st2{fill:#FFFFFF;}
</style>
<linearGradient id="SVGID_1_" gradientUnits="userSpaceOnUse" x1="-130.453" y1="227.0076" x2="652.36" y2="227.0076" gradientTransform="matrix(1 0 0 -1 0 452)">
	<stop  offset="0" style="stop-color:#BD5AE1"/>
	<stop  offset="1" style="stop-color:#7240F9"/>
</linearGradient>
<path class="st0" d="M423.6,92.2c-12.3-29.8-35.9-53.4-65.7-65.7C272.9-8.8,177.3-8.8,92.2,26.4C62.5,38.7,38.8,62.3,26.5,92
	c-35.3,85.1-35.3,180.6-0.1,265.7c12.3,29.8,35.9,53.4,65.7,65.7c85.1,35.3,180.6,35.3,265.7,0.1c29.8-12.3,53.4-35.9,65.7-65.7
	C458.8,272.9,458.8,177.3,423.6,92.2z"/>
<g class="st1">
	<path class="st2" d="M31.2,224.9c0-41.7,8.1-82.4,24.1-120.9c9.2-22.3,26.6-39.6,48.9-48.8c38.5-15.9,79.2-24,120.8-24
		c41.7,0,82.5,8.1,121.1,24.1c22.3,9.2,39.6,26.6,48.8,48.9c16,38.5,24,79.2,24,121L31.2,224.9z"/>
</g>
<path class="st2" d="M296,115.2c25,18.2,43.1,46.2,54.1,83.4c6.8-46.7,7.2-90,7.2-92.2l-62.1-0.5c0,0.1,0,3.2-0.2,8.5
	C295.3,114.7,295.6,115,296,115.2z"/>
<path class="st2" d="M275.4,245.7c-9.3,23.2-25.6,40.6-59.3,40.6v62.1c26.1,0,48.9-6.2,68-18.3C283.4,311.6,281.3,277.6,275.4,245.7
	L275.4,245.7z"/>
<path class="st2" d="M216.1,348.4c-68,0-123.4-55.4-123.4-123.4s55.4-123.4,123.4-123.4c46.7,0,106.9,20.3,128,116.7
	c12.5,57.1,13.1,122.5,13.1,125.2l-62.1,0.4c0-0.6-0.6-61.8-11.7-112.4c-13.1-59.7-40.1-67.9-67.3-67.9c-33.8,0-61.3,27.5-61.3,61.3
	s27.5,61.3,61.3,61.3V348.4L216.1,348.4z"/>
<path class="st2" d="M216.1,101.6c46.7,0,106.9,20.3,128,116.7c12.5,57.1,13.1,122.5,13.1,125.2l-62.1,0.4
	c0-0.6-0.6-61.8-11.7-112.4c-13.1-59.7-40.1-67.9-67.3-67.9V101.6L216.1,101.6z"/>
</svg>
