<?xml version="1.0" encoding="UTF-8"?>
<svg id="_图层_1" data-name="图层_1" xmlns="http://www.w3.org/2000/svg" viewBox="0 0 144 144">
  <defs>
    <style>
      .cls-1 {
        fill: #ed1c24;
      }
    </style>
  </defs>
  <path class="cls-1" d="M72.02,0c-12.5,0-24.2,3.2-34.46,8.78l13.61,15.95,9.65,11.02c3.89-1.33,8.07-2.05,12.39-2.05,21.17,0,38.35,17.17,38.35,38.34,0,14.94-8.53,27.86-20.99,34.16-.76.43-14.8,8.35-38.85,8.35l-37.88-.11c13.11,17.93,34.28,29.56,58.15,29.56,39.79,0,72.02-32.22,72.02-72S111.81,0,72.02,0Z"/>
  <path class="cls-1" d="M15.16,27.86l28.95,19.26c2.99-3.53,6.63-6.48,10.69-8.71L29.71,13.79c-5.51,4-10.41,8.75-14.55,14.11v-.04Z"/>
  <path class="cls-1" d="M41.73,67.54l35.47,13.68v-8.39l-30.21-17.17c-2.38,3.13-4.25,7.02-5.26,11.88Z"/>
  <path class="cls-1" d="M50.81,51.59l26.39,17.57v-8.75l-15.27-14.98c-3.85,1.3-7.74,3.24-11.13,6.16Z"/>
  <path class="cls-1" d="M77.2,94.43v-9.65l-36.26-11.41c-.36,5.58.25,12.13,2.12,19.91,0,0-8.28-8.6-8.32-21.85L.9,60.73h0c-.58,3.67-.9,7.42-.9,11.27,0,7.81,1.26,15.37,3.56,22.43h73.64Z"/>
  <path class="cls-1" d="M2.81,52.13l32.19,12.96c.79-4.75,2.52-9.18,4.97-13.1l-29.46-17.46c-3.31,5.44-5.94,11.34-7.71,17.6Z"/>
  <path class="cls-1" d="M34.32,98.82H5.19c1.55,3.82,3.38,7.49,5.55,10.98h52l6.66-7.02h-31.29l-3.74-3.96h-.04Z"/>
</svg>