<svg width="24" height="24" viewBox="0 0 24 24" fill="none" xmlns="http://www.w3.org/2000/svg">
<g clip-path="url(#clip0_341_278)">
<path d="M12 24.001C18.6274 24.001 24 18.6284 24 12.001C24 5.37356 18.6274 0.000976562 12 0.000976562C5.37258 0.000976562 0 5.37356 0 12.001C0 18.6284 5.37258 24.001 12 24.001Z" fill="#FFCC00"/>
<path d="M12 1C9.45509 0.999919 6.98888 1.88226 5.02158 3.49667C3.05429 5.11109 1.70764 7.35769 1.21108 9.85369C0.714515 12.3497 1.09877 14.9406 2.29837 17.1851C3.49797 19.4295 5.43869 21.1886 7.78986 22.1626C10.141 23.1365 12.7572 23.2651 15.1925 22.5264C17.6279 21.7877 19.7317 20.2275 21.1457 18.1115C22.5596 15.9955 23.1961 13.4547 22.9467 10.9221C22.6973 8.38941 21.5775 6.02157 19.778 4.222C17.7152 2.15908 14.9173 1.00009 12 1ZM12 0C14.3734 0 16.6935 0.703788 18.6668 2.02236C20.6402 3.34094 22.1783 5.21509 23.0866 7.4078C23.9948 9.60051 24.2324 12.0133 23.7694 14.3411C23.3064 16.6689 22.1635 18.8071 20.4853 20.4853C18.8071 22.1635 16.6689 23.3064 14.3411 23.7694C12.0133 24.2324 9.60051 23.9948 7.4078 23.0866C5.21509 22.1783 3.34094 20.6402 2.02236 18.6668C0.703788 16.6935 0 14.3734 0 12C0 8.8174 1.26428 5.76516 3.51472 3.51472C5.76516 1.26428 8.8174 0 12 0Z" fill="#003399"/>
<mask id="mask0_341_278" style="mask-type:luminance" maskUnits="userSpaceOnUse" x="2" y="1" width="20" height="21">
<path d="M12 21.9998C17.5228 21.9998 22 17.5226 22 11.9998C22 6.47691 17.5228 1.99976 12 1.99976C6.47715 1.99976 2 6.47691 2 11.9998C2 17.5226 6.47715 21.9998 12 21.9998Z" fill="white"/>
</mask>
<g mask="url(#mask0_341_278)">
<path d="M29.058 0.494751H-5.12V23.2798H29.058V0.494751Z" fill="#003399"/>
</g>
<path d="M5.02594 10.7304L4.66655 11.8365L5.21912 12.016L5.02594 10.7304Z" fill="#FFCC00"/>
<path d="M5.02556 10.7303L5.38495 11.8364L4.83238 12.016L5.02556 10.7303Z" fill="#FFCC00"/>
<path d="M6.1308 11.5333H4.9678V12.1143L6.1308 11.5333Z" fill="#FFCC00"/>
<path d="M6.13077 11.5329L5.18988 12.2165L4.84838 11.7465L6.13077 11.5329Z" fill="#FFCC00"/>
<path d="M5.70862 12.8335L5.34903 11.7275L4.7965 11.9071L5.70862 12.8335Z" fill="#FFCC00"/>
<path d="M5.70896 12.8333L4.76794 12.1499L5.10936 11.6798L5.70896 12.8333Z" fill="#FFCC00"/>
<path d="M3.91885 11.5343H5.08185V12.1153L3.91885 11.5343Z" fill="#FFCC00"/>
<path d="M3.91998 11.5342L4.86087 12.2178L5.20237 11.7478L3.91998 11.5342Z" fill="#FFCC00"/>
<path d="M4.34067 12.8336L4.70026 11.7275L5.25279 11.9072L4.34067 12.8336Z" fill="#FFCC00"/>
<path d="M4.3418 12.833L5.28281 12.1496L4.94139 11.6795L4.3418 12.833Z" fill="#FFCC00"/>
<path d="M7.83002 6.7926L8.77103 6.10918L8.42961 5.63908L7.83002 6.7926Z" fill="#FFCC00"/>
<path d="M7.83029 6.7929L8.18988 5.68689L8.74241 5.86653L7.83029 6.7929Z" fill="#FFCC00"/>
<path d="M7.40808 5.49335L8.34884 6.17711L8.69043 5.70714L7.40808 5.49335Z" fill="#FFCC00"/>
<path d="M7.40792 5.49368L8.57092 5.4939L8.57082 6.0749L7.40792 5.49368Z" fill="#FFCC00"/>
<path d="M8.5141 4.6897L8.15471 5.79578L8.70728 5.97531L8.5141 4.6897Z" fill="#FFCC00"/>
<path d="M8.51372 4.68964L8.87311 5.79572L8.32054 5.97525L8.51372 4.68964Z" fill="#FFCC00"/>
<path d="M9.1976 6.79375L8.25684 6.10999L8.59843 5.64001L9.1976 6.79375Z" fill="#FFCC00"/>
<path d="M9.19666 6.79309L8.83747 5.68695L8.28487 5.86638L9.19666 6.79309Z" fill="#FFCC00"/>
<path d="M9.62052 5.49302L8.67938 6.17627L8.33805 5.70611L9.62052 5.49302Z" fill="#FFCC00"/>
<path d="M9.61963 5.49371L8.45663 5.49329L8.45642 6.07429L9.61963 5.49371Z" fill="#FFCC00"/>
<path d="M6.64398 9.34723L6.28439 8.24122L5.73186 8.42086L6.64398 9.34723Z" fill="#FFCC00"/>
<path d="M6.64432 9.34706L5.70331 8.66364L6.04472 8.19353L6.64432 9.34706Z" fill="#FFCC00"/>
<path d="M5.27728 9.34662L6.21804 8.66285L5.87645 8.19288L5.27728 9.34662Z" fill="#FFCC00"/>
<path d="M5.27754 9.34687L5.63672 8.24072L6.18932 8.42016L5.27754 9.34687Z" fill="#FFCC00"/>
<path d="M4.85431 8.04651L5.79545 8.72976L6.13678 8.25959L4.85431 8.04651Z" fill="#FFCC00"/>
<path d="M4.85409 8.04688L6.01709 8.04645L6.0173 8.62745L4.85409 8.04688Z" fill="#FFCC00"/>
<path d="M7.06662 8.04591L6.12585 8.72968L5.78426 8.2597L7.06662 8.04591Z" fill="#FFCC00"/>
<path d="M7.06567 8.04663L5.90267 8.04684L5.90278 8.62784L7.06567 8.04663Z" fill="#FFCC00"/>
<path d="M5.96056 7.24298L6.31995 8.34906L5.76738 8.5286L5.96056 7.24298Z" fill="#FFCC00"/>
<path d="M5.96094 7.24402L5.60155 8.3501L6.15411 8.52964L5.96094 7.24402Z" fill="#FFCC00"/>
<path d="M7.06659 15.0219H5.90359V15.6029L7.06659 15.0219Z" fill="#FFCC00"/>
<path d="M7.06656 15.0215L6.12567 15.7051L5.78417 15.235L7.06656 15.0215Z" fill="#FFCC00"/>
<path d="M6.64343 16.3212L6.28405 15.2151L5.73148 15.3946L6.64343 16.3212Z" fill="#FFCC00"/>
<path d="M6.64377 16.321L5.70288 15.6374L6.04438 15.1674L6.64377 16.321Z" fill="#FFCC00"/>
<path d="M5.27637 16.3214L6.21713 15.6376L5.87554 15.1677L5.27637 16.3214Z" fill="#FFCC00"/>
<path d="M5.27662 16.3217L5.6358 15.2155L6.1884 15.395L5.27662 16.3217Z" fill="#FFCC00"/>
<path d="M5.95995 14.2174L6.31934 15.3235L5.76677 15.503L5.95995 14.2174Z" fill="#FFCC00"/>
<path d="M5.96033 14.2184L5.60094 15.3245L6.1535 15.5041L5.96033 14.2184Z" fill="#FFCC00"/>
<path d="M4.85433 15.021L6.01733 15.0212L6.01723 15.6022L4.85433 15.021Z" fill="#FFCC00"/>
<path d="M4.85547 15.021L5.79623 15.7048L6.13782 15.2348L4.85547 15.021Z" fill="#FFCC00"/>
<path d="M9.61957 17.5749H8.45657V18.1559L9.61957 17.5749Z" fill="#FFCC00"/>
<path d="M9.61954 17.5745L8.67865 18.2581L8.33715 17.788L9.61954 17.5745Z" fill="#FFCC00"/>
<path d="M9.19641 18.8741L8.83702 17.7681L8.28446 17.9476L9.19641 18.8741Z" fill="#FFCC00"/>
<path d="M9.19675 18.874L8.25586 18.1904L8.59736 17.7203L9.19675 18.874Z" fill="#FFCC00"/>
<path d="M7.82935 18.8744L8.77011 18.1906L8.42852 17.7206L7.82935 18.8744Z" fill="#FFCC00"/>
<path d="M7.8296 18.8746L8.18878 17.7685L8.74138 17.9479L7.8296 18.8746Z" fill="#FFCC00"/>
<path d="M8.51293 16.7704L8.87231 17.8765L8.31975 18.056L8.51293 16.7704Z" fill="#FFCC00"/>
<path d="M8.51331 16.7714L8.15392 17.8775L8.70648 18.057L8.51331 16.7714Z" fill="#FFCC00"/>
<path d="M7.40731 17.574L8.57031 17.5742L8.57021 18.1552L7.40731 17.574Z" fill="#FFCC00"/>
<path d="M7.40845 17.574L8.34921 18.2577L8.6908 17.7878L7.40845 17.574Z" fill="#FFCC00"/>
<path d="M18.9766 10.728L19.3359 11.834L18.7834 12.0136L18.9766 10.728Z" fill="#FFCC00"/>
<path d="M18.9769 10.729L18.6175 11.8351L19.1701 12.0146L18.9769 10.729Z" fill="#FFCC00"/>
<path d="M17.8708 11.5329H19.0338V12.1139L17.8708 11.5329Z" fill="#FFCC00"/>
<path d="M17.8719 11.5328L18.8128 12.2164L19.1543 11.7464L17.8719 11.5328Z" fill="#FFCC00"/>
<path d="M18.2926 12.8321L18.6522 11.7261L19.2048 11.9058L18.2926 12.8321Z" fill="#FFCC00"/>
<path d="M18.2938 12.8316L19.2348 12.1482L18.8934 11.6781L18.2938 12.8316Z" fill="#FFCC00"/>
<path d="M20.0828 11.532H18.9198V12.113L20.0828 11.532Z" fill="#FFCC00"/>
<path d="M20.0827 11.5316L19.1418 12.2151L18.8003 11.7451L20.0827 11.5316Z" fill="#FFCC00"/>
<path d="M19.6606 12.8322L19.301 11.7261L18.7485 11.9058L19.6606 12.8322Z" fill="#FFCC00"/>
<path d="M19.6609 12.832L18.7199 12.1486L19.0613 11.6785L19.6609 12.832Z" fill="#FFCC00"/>
<path d="M16.1733 6.7909L15.2323 6.10748L15.5737 5.63738L16.1733 6.7909Z" fill="#FFCC00"/>
<path d="M16.1726 6.79041L15.813 5.68439L15.2605 5.86403L16.1726 6.79041Z" fill="#FFCC00"/>
<path d="M16.5944 5.48969L15.6537 6.17346L15.3121 5.70349L16.5944 5.48969Z" fill="#FFCC00"/>
<path d="M16.5939 5.49042L15.4309 5.49063L15.431 6.07163L16.5939 5.49042Z" fill="#FFCC00"/>
<path d="M15.4885 4.68677L15.8478 5.79285L15.2953 5.97239L15.4885 4.68677Z" fill="#FFCC00"/>
<path d="M15.4888 4.68781L15.1294 5.79388L15.682 5.97342L15.4888 4.68781Z" fill="#FFCC00"/>
<path d="M14.8057 6.79102L15.7465 6.10725L15.4049 5.63727L14.8057 6.79102Z" fill="#FFCC00"/>
<path d="M14.806 6.79126L15.1652 5.68512L15.7178 5.86456L14.806 6.79126Z" fill="#FFCC00"/>
<path d="M14.3829 5.49103L15.324 6.17428L15.6653 5.70411L14.3829 5.49103Z" fill="#FFCC00"/>
<path d="M14.3827 5.49139L15.5457 5.49097L15.5459 6.07197L14.3827 5.49139Z" fill="#FFCC00"/>
<path d="M17.3582 9.34448L17.7178 8.23846L18.2704 8.4181L17.3582 9.34448Z" fill="#FFCC00"/>
<path d="M17.3593 9.34424L18.3003 8.66082L17.9589 8.19072L17.3593 9.34424Z" fill="#FFCC00"/>
<path d="M18.7262 9.34478L17.7854 8.66101L18.127 8.19103L18.7262 9.34478Z" fill="#FFCC00"/>
<path d="M18.7253 9.34442L18.3662 8.23828L17.8136 8.41771L18.7253 9.34442Z" fill="#FFCC00"/>
<path d="M19.1491 8.04405L18.2079 8.72729L17.8666 8.25713L19.1491 8.04405Z" fill="#FFCC00"/>
<path d="M19.1482 8.04474L17.9852 8.04431L17.985 8.62531L19.1482 8.04474Z" fill="#FFCC00"/>
<path d="M16.9369 8.04425L17.8777 8.72802L18.2192 8.25804L16.9369 8.04425Z" fill="#FFCC00"/>
<path d="M16.9367 8.04459L18.0997 8.0448L18.0996 8.6258L16.9367 8.04459Z" fill="#FFCC00"/>
<path d="M18.0428 7.24072L17.6835 8.3468L18.236 8.52634L18.0428 7.24072Z" fill="#FFCC00"/>
<path d="M18.0425 7.24066L18.4019 8.34674L17.8493 8.52628L18.0425 7.24066Z" fill="#FFCC00"/>
<path d="M16.936 15.0203H18.099V15.6013L16.936 15.0203Z" fill="#FFCC00"/>
<path d="M16.9371 15.0203L17.878 15.7039L18.2195 15.2338L16.9371 15.0203Z" fill="#FFCC00"/>
<path d="M17.359 16.3202L17.7184 15.2141L18.2709 15.3937L17.359 16.3202Z" fill="#FFCC00"/>
<path d="M17.3601 16.3196L18.301 15.636L17.9595 15.166L17.3601 16.3196Z" fill="#FFCC00"/>
<path d="M18.7266 16.3204L17.7858 15.6367L18.1274 15.1667L18.7266 16.3204Z" fill="#FFCC00"/>
<path d="M18.7256 16.3198L18.3665 15.2136L17.8139 15.3931L18.7256 16.3198Z" fill="#FFCC00"/>
<path d="M18.0425 14.2167L17.6831 15.3228L18.2357 15.5023L18.0425 14.2167Z" fill="#FFCC00"/>
<path d="M18.0421 14.2166L18.4015 15.3227L17.8489 15.5022L18.0421 14.2166Z" fill="#FFCC00"/>
<path d="M19.1486 15.02L17.9856 15.0202L17.9857 15.6012L19.1486 15.02Z" fill="#FFCC00"/>
<path d="M19.1485 15.0196L18.2078 15.7034L17.8662 15.2334L19.1485 15.0196Z" fill="#FFCC00"/>
<path d="M14.382 17.5733H15.545V18.1543L14.382 17.5733Z" fill="#FFCC00"/>
<path d="M14.3831 17.5732L15.324 18.2568L15.6655 17.7868L14.3831 17.5732Z" fill="#FFCC00"/>
<path d="M14.805 18.8732L15.1644 17.7671L15.7169 17.9466L14.805 18.8732Z" fill="#FFCC00"/>
<path d="M14.8061 18.8726L15.747 18.189L15.4055 17.719L14.8061 18.8726Z" fill="#FFCC00"/>
<path d="M16.1726 18.8734L15.2318 18.1896L15.5734 17.7197L16.1726 18.8734Z" fill="#FFCC00"/>
<path d="M16.1716 18.8727L15.8124 17.7666L15.2599 17.946L16.1716 18.8727Z" fill="#FFCC00"/>
<path d="M15.4885 16.7697L15.1291 17.8757L15.6816 18.0553L15.4885 16.7697Z" fill="#FFCC00"/>
<path d="M15.4881 16.7696L15.8475 17.8757L15.2949 18.0552L15.4881 16.7696Z" fill="#FFCC00"/>
<path d="M16.5945 17.5729L15.4315 17.5732L15.4317 18.1542L16.5945 17.5729Z" fill="#FFCC00"/>
<path d="M16.5945 17.5726L15.6537 18.2563L15.3122 17.7864L16.5945 17.5726Z" fill="#FFCC00"/>
<path d="M12.0025 17.7039L11.6431 18.8099L12.1957 18.9895L12.0025 17.7039Z" fill="#FFCC00"/>
<path d="M12.0021 17.7038L12.3615 18.8099L11.8089 18.9894L12.0021 17.7038Z" fill="#FFCC00"/>
<path d="M13.1074 18.5068H11.9444V19.0878L13.1074 18.5068Z" fill="#FFCC00"/>
<path d="M13.1073 18.5063L12.1664 19.1899L11.8249 18.7199L13.1073 18.5063Z" fill="#FFCC00"/>
<path d="M12.6852 19.8069L12.3256 18.7009L11.7731 18.8806L12.6852 19.8069Z" fill="#FFCC00"/>
<path d="M12.6855 19.8068L11.7445 19.1234L12.0859 18.6533L12.6855 19.8068Z" fill="#FFCC00"/>
<path d="M10.8954 18.5078H12.0584V19.0888L10.8954 18.5078Z" fill="#FFCC00"/>
<path d="M10.8965 18.5077L11.8374 19.1913L12.1789 18.7212L10.8965 18.5077Z" fill="#FFCC00"/>
<path d="M11.3172 19.807L11.6768 18.701L12.2293 18.8806L11.3172 19.807Z" fill="#FFCC00"/>
<path d="M11.3184 19.8065L12.2594 19.123L11.918 18.6529L11.3184 19.8065Z" fill="#FFCC00"/>
<path d="M12.0025 3.75488L11.6431 4.86096L12.1957 5.0405L12.0025 3.75488Z" fill="#FFCC00"/>
<path d="M12.0021 3.75482L12.3615 4.8609L11.8089 5.04044L12.0021 3.75482Z" fill="#FFCC00"/>
<path d="M13.1074 4.5578H11.9444V5.1388L13.1074 4.5578Z" fill="#FFCC00"/>
<path d="M13.1073 4.55737L12.1664 5.24097L11.8249 4.77093L13.1073 4.55737Z" fill="#FFCC00"/>
<path d="M12.6852 5.85797L12.3256 4.75196L11.7731 4.9316L12.6852 5.85797Z" fill="#FFCC00"/>
<path d="M12.6855 5.8578L11.7445 5.17438L12.0859 4.70428L12.6855 5.8578Z" fill="#FFCC00"/>
<path d="M10.8954 4.55878H12.0584V5.13978L10.8954 4.55878Z" fill="#FFCC00"/>
<path d="M10.8965 4.55872L11.8374 5.24231L12.1789 4.77227L10.8965 4.55872Z" fill="#FFCC00"/>
<path d="M11.3172 5.85803L11.6768 4.75201L12.2293 4.93165L11.3172 5.85803Z" fill="#FFCC00"/>
<path d="M11.3184 5.85748L12.2594 5.17406L11.918 4.70396L11.3184 5.85748Z" fill="#FFCC00"/>
</g>
<defs>
<clipPath id="clip0_341_278">
<rect width="24" height="24.001" fill="white"/>
</clipPath>
</defs>
</svg>
