<svg width="300" height="300" viewBox="0 0 300 300" fill="none" xmlns="http://www.w3.org/2000/svg">
<g clip-path="url(#clip0_8711_2170)">
<rect x="0.98584" y="0.992188" width="298.013" height="298.013" rx="149.007" fill="url(#paint0_radial_8711_2170)"/>
<path d="M201.04 174.153C199.676 169.419 197.218 165.359 193.654 162.03C192.187 160.62 190.245 159.132 187.832 157.579C186.272 156.576 186.81 153.904 188.624 153.519C191.441 152.921 193.949 152.078 196.149 150.974C199.891 149.1 202.967 146.658 205.422 143.667C207.918 140.67 209.67 137.286 210.619 133.479C211.917 128.272 211.568 123.083 209.578 117.931C207.567 112.774 204.017 108.336 198.869 104.59C197.236 103.387 195.271 102.26 193.073 101.182C192.261 100.784 191.83 99.8717 192.062 98.9974L196.236 83.2817C196.503 82.2767 195.895 81.2479 194.886 80.9963L179.041 77.0456C178.054 76.7996 177.053 77.3902 176.79 78.3726L173.014 92.5244C172.752 93.5068 171.751 94.0974 170.764 93.8514L161.847 91.6282C160.838 91.3765 160.23 90.3462 160.498 89.3408L164.243 75.3071C164.511 74.3017 163.904 73.2715 162.894 73.0197L147.04 69.0669C146.053 68.8209 145.052 69.4116 144.79 70.3939L141.009 84.5638C140.749 85.539 139.759 86.1295 138.777 85.8955L113.856 79.9544C112.863 79.7175 111.864 80.3247 111.617 81.3156L108.55 93.6178C108.301 94.6159 108.908 95.6268 109.906 95.8756L112.588 96.5441C115.618 97.2997 116.388 97.481 117.303 98.2996C118.226 99.109 118.823 100.043 119.032 101.103C119.252 102.144 118.918 104.377 118.067 107.791L102.069 171.955C101.228 175.327 100.49 177.393 99.8012 178.235C99.1124 179.099 98.1612 179.63 96.9503 179.93C95.7683 180.181 95.4864 179.913 92.4557 179.158L89.7746 178.489C88.7765 178.24 87.7656 178.848 87.5167 179.846L84.451 192.142C84.2049 193.129 84.7963 194.131 85.7795 194.392L110.063 200.852C111.058 201.117 111.65 202.138 111.384 203.132L107.629 217.205C107.361 218.21 107.969 219.24 108.978 219.492L124.832 223.445C125.819 223.691 126.82 223.1 127.083 222.118L130.861 207.956C131.123 206.973 132.125 206.383 133.112 206.629L142.413 208.948C143.206 209.145 143.682 209.954 143.472 210.743L139.62 225.181C139.351 226.186 139.959 227.216 140.969 227.468L156.81 231.418C157.797 231.664 158.8 231.072 159.061 230.088L163.325 214.018C163.552 213.163 164.349 212.589 165.233 212.618C168.078 212.711 170.652 212.591 172.946 212.272C180.332 211.262 186.509 208.647 191.471 204.426C196.472 200.204 199.702 195.022 201.224 188.919C202.486 183.837 202.431 178.917 201.04 174.153ZM147.818 109.739C148.067 108.74 149.078 108.132 150.076 108.381L160.873 111.073C168.235 112.909 173.264 114.653 175.889 116.298C178.503 117.897 180.325 119.972 181.287 122.479C182.273 125.025 182.375 127.812 181.624 130.822C180.901 133.722 179.456 136.079 177.331 137.922C175.151 139.762 172.363 140.827 168.944 141.116C165.498 141.443 160.487 140.79 153.891 139.145L143.092 136.453C142.094 136.204 141.487 135.194 141.735 134.196L147.818 109.739ZM166.15 187.949C163.178 190.221 160.024 191.456 156.556 191.538C153.148 191.647 148.985 191.099 144.093 189.879L135.693 187.785C132.904 187.089 131.229 186.499 130.659 186.04C130.081 185.611 129.788 184.954 129.689 184.121C129.651 183.449 129.999 181.358 130.854 177.795L136.614 154.696C136.862 153.698 137.873 153.091 138.871 153.34L151.945 156.599C158.52 158.239 163.173 160.039 166.067 162.058C168.939 164.055 170.911 166.441 171.863 169.212C172.889 171.957 172.994 175.019 172.137 178.459C171.136 182.492 169.146 185.627 166.15 187.949Z" fill="white"/>
</g>
<defs>
<radialGradient id="paint0_radial_8711_2170" cx="0" cy="0" r="1" gradientUnits="userSpaceOnUse" gradientTransform="translate(71.1431 22.1015) rotate(64.4069) scale(294.637)">
<stop stop-color="#AD957E"/>
<stop offset="0.168269" stop-color="#9B8475"/>
<stop offset="0.620192" stop-color="#524651"/>
<stop offset="1" stop-color="#3D3545"/>
</radialGradient>
<clipPath id="clip0_8711_2170">
<rect x="0.993164" y="0.992188" width="298.013" height="298.013" rx="149.007" fill="white"/>
</clipPath>
</defs>
</svg>
