<svg width="300" height="300" viewBox="0 0 300 300" fill="none" xmlns="http://www.w3.org/2000/svg">
<g clip-path="url(#clip0_8711_2172)">
<rect x="2.85596" y="0.992188" width="298.013" height="298.013" rx="149.007" fill="url(#paint0_radial_8711_2172)"/>
<path d="M149.169 128.577C149.573 128.426 150.005 128.724 150.006 129.156L150.062 145.073V173.436C150.062 173.916 149.541 174.215 149.127 173.972L102.92 146.894C102.469 146.629 102.527 145.959 103.017 145.776L149.169 128.577Z" fill="white"/>
<path d="M152.768 128.549C152.361 128.395 151.926 128.697 151.927 129.132L151.981 144.683V173.468C151.981 173.949 152.504 174.247 152.918 174.003L198.626 146.948C199.074 146.683 199.016 146.017 198.529 145.833L152.768 128.549Z" fill="white"/>
<path d="M148.873 71.564C149.213 71.0537 150.009 71.2934 150.01 71.9068L150.05 86.3329L150.005 125.623C150.005 125.882 149.843 126.115 149.599 126.204L102.124 143.675C101.56 143.882 101.06 143.247 101.393 142.748L148.873 71.564Z" fill="white"/>
<path d="M153.253 71.5786C152.913 71.0667 152.115 71.3076 152.115 71.9223V86.32V106.188V125.55C152.115 125.81 152.277 126.042 152.52 126.133L199.837 143.67C200.4 143.879 200.902 143.244 200.569 142.744L153.253 71.5786Z" fill="white"/>
<path d="M149.179 226.54C149.521 227.054 150.322 226.809 150.317 226.192L150.121 201.534V183.88C150.121 183.663 150.007 183.461 149.82 183.348L103.315 155.398C102.747 155.057 102.111 155.722 102.478 156.274L149.179 226.54Z" fill="white"/>
<path d="M153.337 226.519C152.994 227.028 152.2 226.784 152.201 226.17L152.265 201.868L152.243 184.216C152.242 183.997 152.357 183.794 152.545 183.682L199.823 155.47C200.393 155.13 201.027 155.8 200.656 156.35L153.337 226.519Z" fill="white"/>
</g>
<defs>
<radialGradient id="paint0_radial_8711_2172" cx="0" cy="0" r="1" gradientUnits="userSpaceOnUse" gradientTransform="translate(73.0132 22.1015) rotate(64.4069) scale(294.637)">
<stop stop-color="#AD957E"/>
<stop offset="0.168269" stop-color="#9B8475"/>
<stop offset="0.620192" stop-color="#524651"/>
<stop offset="1" stop-color="#3D3545"/>
</radialGradient>
<clipPath id="clip0_8711_2172">
<rect x="0.993408" y="0.992188" width="298.013" height="298.013" rx="149.007" fill="white"/>
</clipPath>
</defs>
</svg>
