<svg width="37" height="37" viewBox="0 0 37 37" xmlns="http://www.w3.org/2000/svg"><g xmlns="http://www.w3.org/2000/svg" width="37" height="37" fill="none" viewBox="0 0 37 37" transform="translate(0.3263071421030405, 0.3263071421030405) scale(0.061258278145695365, 0.061258278145695365)"><path fill="#000" stroke="url(#a)" stroke-miterlimit="10" stroke-width="10" d="M301.98 598.96c164.018 0 296.98-132.962 296.98-296.98S465.998 5 301.98 5C137.963 5 5 137.962 5 301.98s132.963 296.98 296.98 296.98Z"></path><path fill="#000" stroke="url(#b)" stroke-miterlimit="10" stroke-width="8" d="M301.98 572.3c149.294 0 270.32-121.026 270.32-270.32S451.274 31.66 301.98 31.66 31.66 152.686 31.66 301.98 152.687 572.3 301.98 572.3Z"></path><path fill="#fff" d="M153.17 417.41v-10.22L394.2 166.16h68.87v34.43L222.04 441.62h-68.87zm0-216.82v-34.43h68.87l68.87 68.87-51.65 51.65-86.08-86.08zm172.17 172.16 51.65-51.65 86.08 86.08v34.43H394.2l-68.87-68.87z"></path><defs><linearGradient id="a" x1="301.98" x2="301.98" y1="0" y2="603.97" gradientUnits="userSpaceOnUse"><stop stop-color="#DC143C"></stop><stop offset="0.53" stop-color="#1E1E1E"></stop><stop offset="0.99" stop-color="#969696"></stop></linearGradient><linearGradient id="b" x1="301.98" x2="301.98" y1="27.67" y2="576.3" gradientUnits="userSpaceOnUse"><stop stop-color="#DC143C"></stop><stop offset="0.53" stop-color="#1E1E1E"></stop><stop offset="0.99" stop-color="#969696"></stop></linearGradient></defs></g><circle cx="18.5" cy="18.5" r="17.5" stroke="#1BE3C2" stroke-width="2" fill="none"></circle></svg>