<svg width="240" height="240" viewBox="0 0 240 240" fill="none" xmlns="http://www.w3.org/2000/svg">
<g clip-path="url(#clip0_130_2)">
<path d="M240 0H0V240H240V0Z" fill="black"/>
<mask id="mask0_130_2" style="mask-type:luminance" maskUnits="userSpaceOnUse" x="63" y="63" width="115" height="115">
<path d="M177.832 63H63V177.832H177.832V63Z" fill="white"/>
</mask>
<g mask="url(#mask0_130_2)">
<path d="M177.832 63H63V177.832H177.832V63Z" fill="white"/>
<path d="M135.134 123.277L135.968 123.288C153.209 123.788 152.802 139.895 144.219 153.792L146.698 153.914C139.519 159.493 130.502 162.817 120.707 162.817C98.2513 162.817 79.8758 145.36 78.405 123.277H135.134ZM120.707 78.0178C142.53 78.018 160.5 94.5058 162.844 115.704H78.5691C80.9134 94.5057 98.8832 78.0178 120.707 78.0178Z" fill="black"/>
<path d="M152.937 140.595C152.937 150.154 145.188 157.903 135.629 157.903C126.07 157.903 118.321 150.154 118.321 140.595C118.321 131.036 126.07 123.287 135.629 123.287C145.188 123.287 152.937 131.036 152.937 140.595Z" fill="black"/>
<path d="M80.0707 123.322H39.2095V129.477H80.0707V123.322Z" fill="black"/>
<path d="M161.097 109.646H201.787V115.801H161.097V109.646Z" fill="black"/>
</g>
</g>
<defs>
<clipPath id="clip0_130_2">
<rect width="240" height="240" rx="120" fill="white"/>
</clipPath>
</defs>
</svg>
