<svg width="38" height="38" viewBox="0 0 38 38" fill="none" xmlns="http://www.w3.org/2000/svg">
<path d="M18.5088 0.334473H18.5098C28.547 0.334527 36.6835 8.47108 36.6836 18.5083V18.5093C36.6835 28.5465 28.547 36.6831 18.5098 36.6831H18.5088C8.47157 36.683 0.335016 28.5465 0.334961 18.5093V18.5083C0.335057 8.4711 8.47159 0.334569 18.5088 0.334473Z" fill="black" stroke="black" stroke-width="0.669516"/>
<path d="M15.5396 4.72949C9.18628 6.08423 4.42062 11.7291 4.42041 18.4863C4.42056 25.2435 9.18634 30.8875 15.5396 32.2422V33.6934C8.39557 32.3167 2.99869 26.0321 2.99854 18.4863C2.99875 10.9406 8.39552 4.65581 15.5396 3.2793V4.72949ZM21.4604 3.28418C28.5916 4.67096 33.9749 10.9498 33.9751 18.4863C33.9749 26.0229 28.5915 32.3016 21.4604 33.6885V32.2363C27.8004 30.8717 32.5521 25.2342 32.5522 18.4863C32.552 11.7384 27.8005 6.10002 21.4604 4.73535V3.28418Z" fill="white"/>
<path d="M20.6933 17.9687C21.8751 18.1939 22.7917 18.6283 23.4432 19.2718C24.0947 19.8992 24.4204 20.7035 24.4204 21.6849V23.2292C24.4204 24.4036 23.9962 25.3527 23.1477 26.0767C22.2993 26.7845 21.1857 27.1384 19.807 27.1384H19.3298V29.5998H17.6935V27.1384H17.1936C16.2845 27.1384 15.4815 26.9373 14.7846 26.5352C14.0877 26.1169 13.5423 25.5378 13.1483 24.7977C12.7696 24.0416 12.5802 23.1729 12.5802 22.1916H14.2165C14.2165 23.189 14.4892 24.0014 15.0346 24.6288C15.5952 25.2401 16.33 25.5458 17.239 25.5458H19.7616C20.6555 25.5458 21.3751 25.3367 21.9205 24.9184C22.466 24.484 22.7387 23.921 22.7387 23.2292V21.6849C22.7387 21.1379 22.5341 20.6714 22.1251 20.2853C21.7312 19.8992 21.1857 19.6498 20.4888 19.5372L16.3982 18.8133C15.2467 18.6042 14.3528 18.1698 13.7165 17.5102C13.0802 16.8507 12.762 16.0222 12.762 15.0248V13.7217C12.762 12.5473 13.1711 11.6143 13.9892 10.9225C14.8225 10.2147 15.9209 9.86076 17.2845 9.86076H17.6935V7.39941H19.3298V9.86076H19.8525C21.1403 9.86076 22.1781 10.279 22.9659 11.1156C23.7538 11.936 24.1477 13.0219 24.1477 14.3732H22.5114C22.5114 13.4884 22.269 12.7806 21.7842 12.2497C21.2994 11.7188 20.6555 11.4534 19.8525 11.4534H17.2845C16.4209 11.4534 15.7315 11.6625 15.2164 12.0808C14.7013 12.483 14.4437 13.0299 14.4437 13.7217V15.0248C14.4437 15.5878 14.6331 16.0624 15.0119 16.4485C15.4058 16.8346 15.9436 17.092 16.6254 17.2207L20.6933 17.9687Z" fill="white"/>
<circle cx="29" cy="29" r="8" fill="black"/>
<mask id="mask0_7111_10971" style="mask-type:luminance" maskUnits="userSpaceOnUse" x="25" y="25" width="9" height="9">
<path d="M34 25H25V34H34V25Z" fill="white"/>
</mask>
<g mask="url(#mask0_7111_10971)">
<path d="M28.1313 25.0029L27.6913 26.1982H25V25.0029H28.1313Z" fill="#FF6200"/>
<path d="M34.0369 25.0029V26.1982H30.9149L28.0801 33.855H25V32.6626H27.003L29.8378 25.0029H34.0369Z" fill="#FF6200"/>
</g>
</svg>
