<svg width="37" height="37" viewBox="0 0 37 37" xmlns="http://www.w3.org/2000/svg"><g xmlns="http://www.w3.org/2000/svg" width="37" height="37" viewBox="0 0 37 37" transform="translate(0, 0) scale(0.5522388059701493, 0.5522388059701493)"><defs><clipPath id="a"><path d="M0 33.5C0 15 15 0 33.5 0S67 15 67 33.5 52 67 33.5 67 0 52 0 33.5m0 0"></path></clipPath><clipPath id="b"><path d="M17.586 17.586H49.69V49.69H17.586Zm0 0"></path></clipPath><clipPath id="c"><path d="M0 33.5C0 15 15 0 33.5 0S67 15 67 33.5 52 67 33.5 67 0 52 0 33.5m0 0"></path></clipPath><clipPath id="d"><path d="M21 21h25v25H21Zm0 0"></path></clipPath><clipPath id="e"><path d="M0 33.5C0 15 15 0 33.5 0S67 15 67 33.5 52 67 33.5 67 0 52 0 33.5m0 0"></path></clipPath><clipPath id="f"><path d="M33 34h10v11H33Zm0 0"></path></clipPath><clipPath id="g"><path d="M0 33.5C0 15 15 0 33.5 0S67 15 67 33.5 52 67 33.5 67 0 52 0 33.5m0 0"></path></clipPath><clipPath id="h"><path d="M17.586 34H23v3h-5.414Zm0 0"></path></clipPath><clipPath id="i"><path d="M0 33.5C0 15 15 0 33.5 0S67 15 67 33.5 52 67 33.5 67 0 52 0 33.5m0 0"></path></clipPath><clipPath id="j"><path d="M44 30h5.691v3H44Zm0 0"></path></clipPath><clipPath id="k"><path d="M0 33.5C0 15 15 0 33.5 0S67 15 67 33.5 52 67 33.5 67 0 52 0 33.5m0 0"></path></clipPath></defs><g clip-path="url(#a)" clip-rule="evenodd"><path d="M0 0h67v67H0z" style="fill:#ff5100;fill-opacity:1;stroke:none"></path></g><g clip-path="url(#b)"><g clip-path="url(#c)" clip-rule="evenodd"><path d="M17.586 17.586h32.059v32.059h-32.06Zm0 0" style="stroke:none;fill-rule:nonzero;fill:#fff;fill-opacity:1"></path></g></g><g clip-path="url(#d)"><g clip-path="url(#e)" clip-rule="evenodd"><path d="m37.727 34.414.23.004c4.813.14 4.7 4.637 2.305 8.516l.691.035a11.8 11.8 0 0 1-7.254 2.484c-6.27 0-11.402-4.875-11.812-11.039Zm-4.028-12.633c6.09 0 11.106 4.602 11.762 10.52H21.934c.656-5.918 5.671-10.52 11.765-10.52m0 0" style="stroke:none;fill-rule:nonzero;fill:#ff5100;fill-opacity:1"></path></g></g><g clip-path="url(#f)"><g clip-path="url(#g)" clip-rule="evenodd"><path d="M42.695 39.25a4.833 4.833 0 1 1-9.666-.002 4.833 4.833 0 0 1 9.666.002m0 0" style="stroke:none;fill-rule:nonzero;fill:#ff5100;fill-opacity:1"></path></g></g><g clip-path="url(#h)"><g clip-path="url(#i)" clip-rule="evenodd"><path d="M10.945 34.426h11.407v1.719H10.945Zm0 0" style="stroke:none;fill-rule:nonzero;fill:#ff5100;fill-opacity:1"></path></g></g><g clip-path="url(#j)"><g clip-path="url(#k)" clip-rule="evenodd"><path d="M44.973 30.61h11.359v1.718h-11.36Zm0 0" style="stroke:none;fill-rule:nonzero;fill:#ff5100;fill-opacity:1"></path></g></g></g><circle cx="18.5" cy="18.5" r="17.5" stroke="#1BE3C2" stroke-width="2" fill="none"></circle></svg>