<svg width="37" height="37" viewBox="0 0 37 37" xmlns="http://www.w3.org/2000/svg"><g xmlns="http://www.w3.org/2000/svg" width="37" height="37" fill="none" viewBox="0 0 37 37" transform="translate(-0.11187483813311602, -0.002163397702010902) scale(1.15625, 1.15625)"><g clip-path="url(#a)"><path fill="#0029FF" d="M16.003 0a16.003 16.003 0 1 1 0 32.005 16.003 16.003 0 0 1 0-32.005"></path><path fill="#fff" stroke="#fff" stroke-miterlimit="10" stroke-width="0.28" d="M23.256 26.633V24.13h-.56v1.944H8.855v-1.944h-.56v2.504zM23.628 5.031v2.504h-.56V5.591H9.238v1.944h-.56V5.031z"></path><path fill="#fff" fill-rule="evenodd" d="M15.54 22.57h-2.526v-1.182H11.75v-1.19h-1.269v-.866h2.188v1.182h1.265v1.19h4.129v-1.19h1.257v-2.691h-2.523v-1.188h-2.524v-1.179h-2.523V14.26h-1.269v-2.05h1.269v-1.187h1.263V9.835h2.456v-1.96h1.045v1.96h2.467v1.188h1.26v1.187h1.264v.869H19.32V11.89h-1.258v-1.187h-4.128v1.187H12.67v2.697h2.527v1.182h2.523v1.187h2.523v1.188h1.264v2.053h-1.264v1.19h-1.26v1.182H16.46M13.018 24.532h2.453v-1.96h1.048v1.96h2.467" clip-rule="evenodd"></path><path fill="#fff" d="M15.208 14.294h-2.672v.342h2.672zM17.71 15.429h-2.55v.355h2.55zM20.237 16.66h-2.54v.35h2.54zM14.413 15.424H11.74v.342h2.672zM16.937 16.554h-2.66v.355h2.66zM19.464 17.786h-2.66v.35h2.66z"></path></g><defs><clipPath id="a"><path fill="#fff" d="M0 0h32v32H0z"></path></clipPath></defs></g><circle cx="18.5" cy="18.5" r="17.5" stroke="#1BE3C2" stroke-width="2" fill="none"></circle></svg>