<?xml version="1.0" encoding="UTF-8"?>
<svg id="Layer_1" data-name="Layer 1" xmlns="http://www.w3.org/2000/svg" viewBox="0 0 64 64">
  <defs>
    <style>
      .cls-1 {
        fill: #fff;
      }

      .cls-2 {
        fill: #006aff;
      }
    </style>
  </defs>
  <circle class="cls-2" cx="32" cy="32" r="32"/>
  <g>
    <circle class="cls-1" cx="38.79" cy="21.35" r="7.58"/>
    <path class="cls-1" d="M41.97,35.77c-1.09-.5-2.36-.66-3.29-.7,0,0,0,0,0,0-2.16-.2-3.4-1.85-3.31-3.37.08-1.27,1.37-2.57,2.76-2.8-.58-.08-2.06-.4-3.34-1.22-1.02-.65-1.93-1.58-2.01-1.69.55,1.43-.25,3.01-1.58,3.69-1.38.7-3.64-.45-4.44-1.82,0,0,0,0,0,0-1.66-2.45-3.99-3.66-6.88-3.48-3.77.24-6.83,3.31-7.06,7.08-.27,4.41,3.22,8.06,7.56,8.06,2.86,0,5.35-1.58,6.64-3.92.47-.85,1.27-1.48,2.22-1.67.21-.04.41-.06.6-.06,1.97.04,2.88,1.95,2.98,3.42.03.4-.09.79-.31,1.12-.59.87-1.01,1.89-1.2,3.01-.59,3.53,1.43,7.05,4.78,8.32,4.4,1.66,9.18-1,10.12-5.57.7-3.42-1.07-6.94-4.25-8.4Z"/>
  </g>
</svg>