<svg width="40" height="40" viewBox="0 0 40 40" fill="none" xmlns="http://www.w3.org/2000/svg">
<g clip-path="url(#clip0_14406_1070)">
<path d="M0 20C0 8.95431 8.95431 0 20 0C31.0457 0 40 8.95431 40 20C40 31.0457 31.0457 40 20 40C8.95431 40 0 31.0457 0 20Z" fill="#2C6EFF"/>
<path d="M39 20C39 9.50659 30.4934 1 20 1C9.50659 1 1 9.50659 1 20C1 30.4934 9.50659 39 20 39V40C8.95431 40 0 31.0457 0 20C0 8.95431 8.95431 0 20 0C31.0457 0 40 8.95431 40 20C40 31.0457 31.0457 40 20 40V39C30.4934 39 39 30.4934 39 20Z" fill="white" fill-opacity="0.2"/>
<path fill-rule="evenodd" clip-rule="evenodd" d="M20.0001 3.81201C28.9404 3.81205 36.188 11.0597 36.188 20.0001C36.188 28.9403 28.9403 36.188 20.0001 36.188C11.0597 36.188 3.81205 28.9404 3.81201 20.0001C3.81201 11.0597 11.0597 3.81201 20.0001 3.81201ZM29.8392 9.36075L16.6107 14.1447V14.6524C16.6107 14.9392 16.7808 15.203 17.0432 15.325L28.3511 20.5663C29.2551 20.9851 29.8392 21.8957 29.8392 22.8867V22.9669C29.8392 24.0368 29.1599 25.002 28.1491 25.3706L24.3107 26.7602C24.0829 26.8434 23.9314 27.0584 23.9314 27.2993V30.2285C23.9314 30.2823 23.8977 30.3304 23.8471 30.3487L16.1468 33.1324C16.1052 33.1474 16.0612 33.1167 16.0612 33.0723V30.3496C16.0612 29.9882 16.2891 29.6641 16.6308 29.5407L11.1085 31.5413C13.5687 33.4394 16.6525 34.5688 20.0001 34.5688C28.0461 34.5687 34.5687 28.0461 34.5688 20.0001C34.5688 15.7469 32.746 11.9193 29.8392 9.25591V9.36075ZM20.0001 5.43137C11.954 5.43137 5.43137 11.954 5.43137 20.0001C5.43139 24.2525 7.2534 28.0792 10.1593 30.7426V30.7423L23.3043 25.9829V25.3232C23.3043 25.0364 23.134 24.7725 22.8716 24.6506L11.6488 19.4564C10.7433 19.0391 10.1593 18.1271 10.1593 17.1361C10.1593 16.0635 10.8399 15.0969 11.8536 14.7298L15.6805 13.3488C15.9098 13.2671 16.0612 13.0505 16.0612 12.8096V9.89904C16.0612 9.84522 16.095 9.79716 16.1456 9.77885L23.8458 6.99518C23.8875 6.98013 23.9314 7.01093 23.9314 7.05521V9.76949C23.9314 10.1309 23.7036 10.4549 23.3618 10.5782L29.0016 8.54427C26.5236 6.59451 23.3977 5.43138 20.0001 5.43137Z" fill="white"/>
</g>
<defs>
<clipPath id="clip0_14406_1070">
<rect width="40" height="40" fill="white"/>
</clipPath>
</defs>
</svg>
