<?xml version="1.0" encoding="utf-8"?>
<!-- Generator: Adobe Illustrator 26.5.0, SVG Export Plug-In . SVG Version: 6.00 Build 0)  -->
<svg version="1.1" id="Calque_1" xmlns="http://www.w3.org/2000/svg" xmlns:xlink="http://www.w3.org/1999/xlink" x="0px" y="0px"
	 viewBox="0 0 1080 1080" style="enable-background:new 0 0 1080 1080;" xml:space="preserve">
<style type="text/css">
	.st0{fill:#FFFFFF;stroke:#002664;stroke-width:10;stroke-miterlimit:10;}
	.st1{fill:url(#SVGID_1_);}
	.st2{fill:url(#SVGID_00000006707506038218479480000015792994042674293426_);}
	.st3{fill:url(#SVGID_00000144310730228758085010000006070270729469293723_);}
	.st4{fill:url(#SVGID_00000124874819314866318050000017939198254766853038_);}
	.st5{fill:url(#SVGID_00000053504953877801197540000002062569942907896456_);}
	.st6{fill:url(#SVGID_00000004525016566859471750000017216126514928891269_);}
	.st7{fill:url(#SVGID_00000116952049417361409170000011789939980255963269_);}
	.st8{fill:#002664;stroke:#FFFFFF;stroke-width:10;stroke-miterlimit:10;}
	.st9{fill:#FFFFFF;}
	.st10{fill:none;stroke:#002664;stroke-width:10;stroke-miterlimit:10;}
</style>
<circle class="st0" cx="539.41" cy="539.9" r="540"/>
<linearGradient id="SVGID_1_" gradientUnits="userSpaceOnUse" x1="199.9628" y1="1278.738" x2="969.2305" y2="1248.3722" gradientTransform="matrix(1 0 0 -1 0 1313.8899)">
	<stop  offset="0" style="stop-color:#BF092E"/>
	<stop  offset="1" style="stop-color:#BF092E"/>
</linearGradient>
<path class="st1" d="M516.03,2.22c-4.34,0.19-8.67,0.44-13.01,0.77c-4.97,0.38-9.94,0.77-14.91,1.17
	c-4.49,0.37-8.94,1.09-13.44,1.39c-3.63,0.72-7.33,0.95-10.99,1.5c-6.05,0.93-12.08,1.82-18.1,2.93
	c-12.1,2.21-13.73,2.56-24.59,4.96c-12.1,2.68-24.08,5.86-35.95,9.46c-34.48,10.44-67.63,24.29-99.43,41.49
	c-9.82,5.31-19.44,10.94-28.93,16.86c-0.55,0.34-1.09,0.7-1.63,1.05c-0.56,0.36-0.91,0.99-0.61,1.16c0.26,0.14,0.53,0.35,0.81,0.36
	c1.93,0.05,3.86,0.07,5.78,0.07c185.12,0,370.26,0,555.38,0c1.61,0,3.22,0.01,4.83-0.02c0.47-0.01,0.96-0.08,1.43-0.16
	c0.13-0.02,0.29-0.12,0.37-0.24c0.23-0.33,0.16-0.62-0.11-0.88c-0.83-0.78-1.84-1.31-2.81-1.91
	c-28.25-17.59-57.82-32.38-88.71-44.41c-18.5-7.2-37.34-13.3-56.48-18.42c-8.24-2.21-16.55-4.15-24.89-5.95
	c-6.61-1.42-13.25-2.66-19.9-3.86c-2.53-0.45-5.08-0.86-7.61-1.25c-3.81-0.59-7.62-1.18-11.45-1.71c-3.5-0.48-7.02-0.92-10.53-1.29
	c-4.48-0.47-8.94-1.09-13.44-1.33c-0.32-0.02-0.64-0.06-0.96-0.11c-2.23-0.36-4.48-0.46-6.73-0.58c-1.61-0.08-3.22-0.1-4.82-0.29
	c-4.33-0.49-8.66-0.6-13.01-0.8c-1.61-0.07-3.21-0.21-4.81-0.34c-0.65-0.05-1.24-0.32-1.8-0.66c-10.61,0-21.23,0-31.85,0
	c-0.72,0.38-1.49,0.64-2.29,0.7C519.25,2.02,517.64,2.15,516.03,2.22z"/>
<linearGradient id="SVGID_00000145736904725424422740000014770076002870177712_" gradientUnits="userSpaceOnUse" x1="1.0116" y1="793.3135" x2="1080.0476" y2="750.7199" gradientTransform="matrix(1 0 0 -1 0 1313.8899)">
	<stop  offset="0" style="stop-color:#BF092E"/>
	<stop  offset="1" style="stop-color:#BF092E"/>
</linearGradient>
<path style="fill:url(#SVGID_00000145736904725424422740000014770076002870177712_);" d="M1079.31,502
	c-0.04-0.32-0.16-0.63-0.23-0.96c-0.07-0.32-0.72-0.94-1.02-0.98c-2.08-0.29-4.18-0.16-6.27-0.16
	c-176.9-0.01-353.81-0.01-530.71-0.01c-176.74,0-353.48,0-530.23,0c-1.93,0-3.87-0.01-5.8,0.02c-0.64,0.01-1.29,0.06-1.91,0.2
	c-0.28,0.06-0.57,0.33-0.75,0.58c-0.17,0.26-0.27,0.61-0.3,0.94c-0.34,4.64-0.75,9.28-0.87,13.95c-0.38,14.98-0.4,29.94,0.02,44.91
	c0.06,2.16,0.16,4.33,0.29,6.48c0.18,3.15,0.39,6.3,0.58,9.46c0.09,1.5,0.16,2.98,0.27,4.48c0.04,0.49,0.18,0.98,0.27,1.47
	c0.08,0.47,0.9,1.28,1.33,1.32c0.48,0.05,0.96,0.16,1.44,0.17c1.77,0.03,3.54,0.04,5.32,0.04c353.32,0,706.65,0,1059.97,0
	c1.77,0,3.54,0,5.32-0.03c0.63-0.01,1.28-0.14,1.91-0.22c0.53-0.07,1.18-0.77,1.25-1.33c0.04-0.33,0.13-0.66,0.14-0.98
	c0.04-1.5,0.07-3,0.07-4.49c0-23.28,0-46.58,0-69.87c0-1.16,0-2.33-0.01-3.49C1079.39,503,1079.37,502.5,1079.31,502z"/>
<linearGradient id="SVGID_00000027601836283640911190000011747411067232275339_" gradientUnits="userSpaceOnUse" x1="20.2847" y1="958.3824" x2="1065.7756" y2="917.113" gradientTransform="matrix(1 0 0 -1 0 1313.8899)">
	<stop  offset="0" style="stop-color:#BF092E"/>
	<stop  offset="1" style="stop-color:#BF092E"/>
</linearGradient>
<path style="fill:url(#SVGID_00000027601836283640911190000011747411067232275339_);" d="M18.36,418.03
	c0.29,0.12,0.6,0.26,0.91,0.26c2.08,0.04,4.16,0.07,6.23,0.07c171.74,0,343.48,0,515.22,0c172.06,0,344.12,0,516.18,0
	c1.92,0,3.84,0,5.76-0.02c0.48-0.01,0.95-0.09,1.43-0.15c0.37-0.04,0.9-0.65,0.88-1.05c-0.03-0.66,0-1.35-0.14-1.99
	c-0.66-2.94-1.34-5.88-2.08-8.8c-5.23-20.78-11.42-41.24-18.84-61.29c-1.04-2.81-2.1-5.63-3.15-8.44c-0.23-0.62-0.52-1.23-0.76-1.85
	c-0.44-1.21-1.2-1.93-2.5-1.93c-2.24,0-4.48-0.04-6.72-0.04c-326.53,0-653.06,0-979.59,0c-1.44,0-2.88,0-4.32,0
	c-0.64,0-1.28,0.01-1.92,0.04c-0.32,0.01-0.63,0.08-0.95,0.13c-0.52,0.07-0.89,0.44-1.11,0.86c-1,1.92-1.67,3.99-2.43,6.01
	c-6.94,18.61-12.89,37.57-17.89,56.86c-1.64,6.31-3.23,12.64-4.55,19.04c-0.1,0.48-0.16,0.99-0.17,1.48
	C17.85,417.62,18.06,417.91,18.36,418.03z"/>
<linearGradient id="SVGID_00000157302646997221272380000008009132166152788920_" gradientUnits="userSpaceOnUse" x1="18.8707" y1="627.4131" x2="1062.4763" y2="586.2182" gradientTransform="matrix(1 0 0 -1 0 1313.8899)">
	<stop  offset="0" style="stop-color:#BF092E"/>
	<stop  offset="1" style="stop-color:#BF092E"/>
</linearGradient>
<path style="fill:url(#SVGID_00000157302646997221272380000008009132166152788920_);" d="M1063.93,665.69
	c-0.62-0.14-1.26-0.23-1.9-0.24c-2.08-0.03-4.16-0.03-6.24-0.03c-171.23,0-342.47,0-513.7,0s-342.47,0-513.7,0
	c-1.92,0-3.84-0.01-5.76,0.03c-0.63,0.01-1.27,0.13-1.9,0.2c-0.6,0.07-1.19,0.85-1.07,1.39c0.32,1.46,0.61,2.94,0.97,4.39
	c3.11,12.45,6.54,24.8,10.42,37.01c3.83,12.05,8.07,23.96,12.65,35.71c0.6,1.55,1.26,3.07,1.96,4.57c0.28,0.6,0.8,1.06,1.51,1.08
	c2.24,0.04,4.47,0.08,6.71,0.08c325.68,0,651.36,0,977.04,0c1.76,0,3.52,0.01,5.28-0.01c0.64-0.01,1.27-0.07,1.91-0.11
	c0.54-0.03,0.85-0.42,1.13-0.8c0.77-1.09,1.14-2.39,1.62-3.62c6.25-15.75,11.66-31.83,16.35-48.15c2.66-9.28,5.12-18.62,7.31-28.04
	c0.15-0.65,0.27-1.31,0.34-1.96c0.03-0.31,0-0.71-0.16-0.96C1064.56,665.96,1064.22,665.76,1063.93,665.69z"/>
<linearGradient id="SVGID_00000041261940304848630470000009855951853946361748_" gradientUnits="userSpaceOnUse" x1="89.1119" y1="459.0015" x2="990.0817" y2="423.437" gradientTransform="matrix(1 0 0 -1 0 1313.8899)">
	<stop  offset="0" style="stop-color:#BF092E"/>
	<stop  offset="1" style="stop-color:#BF092E"/>
</linearGradient>
<path style="fill:url(#SVGID_00000041261940304848630470000009855951853946361748_);" d="M991.66,831.55
	c-1.92-0.25-3.84-0.12-5.77-0.12c-148.03-0.01-296.06-0.01-444.09-0.01s-296.06,0-444.09,0c-1.44,0-2.89,0-4.33,0
	c-0.64,0-1.28,0.02-1.93,0.03c-1.34,0.03-1.82,0.76-1.15,1.86c1.03,1.71,2.08,3.41,3.16,5.09c16.95,26.37,35.87,51.05,56.72,74.09
	c0.99,1.1,2.03,2.17,3.05,3.24c0.47,0.5,1.06,0.78,1.72,0.79c2.25,0.05,4.49,0.08,6.73,0.08c230.15,0,460.29,0,690.44,0
	c23.74,0,47.47,0.02,71.21-0.01c5.94-0.01,4.44,0.61,8.71-3.9c0.34-0.36,0.66-0.74,0.99-1.1c20.49-22.71,39.07-47.04,55.77-72.96
	c1.08-1.68,2.13-3.38,3.17-5.08c0.17-0.27,0.24-0.62,0.37-0.93C992.49,832.27,992.06,831.6,991.66,831.55z"/>
<linearGradient id="SVGID_00000018937143095296943290000004068810229900291973_" gradientUnits="userSpaceOnUse" x1="86.774" y1="1104.7792" x2="995.9003" y2="1104.7792" gradientTransform="matrix(1 0 0 -1 0 1313.8899)">
	<stop  offset="0" style="stop-color:#BF092E"/>
	<stop  offset="1" style="stop-color:#BF092E"/>
</linearGradient>
<path style="fill:url(#SVGID_00000018937143095296943290000004068810229900291973_);" d="M87.42,251.1
	c2.08,0.31,4.17,0.17,6.25,0.17c149.31,0.01,298.63,0.01,447.93,0.01c148.99,0,297.98,0,446.97,0c1.77,0,3.54,0,5.31-0.02
	c0.47-0.01,0.96-0.11,1.43-0.15c0.41-0.03,0.74-0.76,0.52-1.19c-0.39-0.74-0.73-1.51-1.19-2.21c-3.43-5.34-6.81-10.71-10.32-15.98
	c-14.37-21.54-30.11-41.91-47.15-61.16c-0.87-0.99-1.8-1.93-2.71-2.89c-0.47-0.5-1.08-0.72-1.74-0.72
	c-2.09-0.01-4.18-0.04-6.26-0.04c-257.16,0-514.31,0-771.47,0c-1.45,0-2.9,0-4.34,0.01c-0.48,0-0.97,0.03-1.45,0.05
	c-0.68,0.02-1.27,0.33-1.72,0.82c-1.48,1.56-2.94,3.14-4.35,4.75c-20.32,23.05-38.37,47.95-54.64,74.31
	c-0.44,0.71-0.86,1.43-1.28,2.17c-0.16,0.29-0.26,0.62-0.39,0.92C86.64,250.32,87.02,251.04,87.42,251.1z"/>
<linearGradient id="SVGID_00000047030295396815663090000010389349620934473405_" gradientUnits="userSpaceOnUse" x1="255.5547" y1="292.7157" x2="820.6793" y2="270.4081" gradientTransform="matrix(1 0 0 -1 0 1313.8899)">
	<stop  offset="0" style="stop-color:#BF092E"/>
	<stop  offset="1" style="stop-color:#BF092E"/>
</linearGradient>
<path style="fill:url(#SVGID_00000047030295396815663090000010389349620934473405_);" d="M821.78,998.21
	c-1.81-0.02-3.61-0.07-5.42-0.07c-92.31,0-184.61,0-276.91,0s-184.61,0-276.91,0c-1.65,0-3.29,0.01-4.94,0.02
	c-0.88,0.01-1.26,0.22-1.13,0.6c0.09,0.29,0.22,0.58,0.51,0.77c0.55,0.36,1.1,0.72,1.67,1.05c34,20.09,69.73,36.35,107.2,48.76
	c16.87,5.58,33.98,10.33,51.32,14.23c8.99,2.02,18.02,3.83,27.08,5.45c5.02,0.89,10.05,1.69,15.1,2.39c3.1,0.43,6.19,0.85,9.29,1.24
	c4.07,0.53,8.15,1.1,12.24,1.48c5.24,0.47,10.46,1.18,15.73,1.37c0.66,0.02,1.31,0.13,1.97,0.19c2.46,0.18,4.92,0.38,7.39,0.52
	c2.95,0.17,5.92,0.21,8.87,0.42c3.28,0.24,6.58,0.38,9.86,0.44c10.2,0.21,20.4,0.21,30.6-0.02c2.14-0.05,4.28-0.13,6.41-0.24
	c3.78-0.19,7.55-0.44,11.34-0.59c5.93-0.24,11.8-1,17.72-1.3c0.16-0.01,0.33-0.04,0.49-0.06c4.57-0.63,9.17-0.84,13.74-1.5
	c3.75-0.54,7.52-0.83,11.26-1.4c5.36-0.83,10.73-1.6,16.08-2.51c6.16-1.04,12.32-2.15,18.43-3.42c13.05-2.7,25.99-5.83,38.82-9.44
	c37.52-10.55,73.48-24.96,107.96-43.14c7.72-4.07,15.32-8.35,22.84-12.77c0.57-0.33,1.12-0.68,1.67-1.06
	c0.29-0.2,0.39-0.51,0.38-0.83C822.42,998.38,822.21,998.22,821.78,998.21z"/>
<g>
	<g>
		<g>
			<g>
				<path class="st8" d="M542.54,182.91L542.54,182.91c198.28,0,359.03,160.75,359.03,359.03l0,0
					c0,198.28-160.75,359.03-359.03,359.03l0,0c-198.28,0-359.03-160.75-359.03-359.03l0,0
					C183.51,343.66,344.26,182.91,542.54,182.91z"/>
			</g>
		</g>
	</g>
</g>
<g>
	<g>
		<g>
			<g>
				<path class="st9" d="M760.18,492.28c-1.64-86.61-120.03-190.5-120.03-190.5s47.68,80.73,53.82,111.56
					c-51.83-62.36-147.93-96.49-147.93-96.49s104.59,102.53,113.21,121.72c-82.58-60.03-238.69-79.24-238.69-79.24
					S597.85,442,612.17,461.19c-129.02-54.8-263.22-27.15-263.22-27.15s174.51,32.4,205.2,55.01
					c-122-15.66-252.94,38.18-252.94,38.18s181.4-6.94,209.36,1.28c-105.36-3.27-226.41,87.8-226.41,87.8s119.89-33.08,179.22-41.99
					c-115.92,47.97-192.17,149.57-192.17,149.57s94.18-62.54,131.68-72.14c-7.5,21.24-30.87,65.28,1.86,72.14
					c26.19,5.48,91.73-11.88,105.83-16.45c4.09,10.28,8.51,16.45,32.73,16.45c21.14,0,40.69-9.14,48.42-16.45
					c7.5,10.28,18.2,16.45,33.41,16.45c18.41,0,27.51-4.11,34.1-9.59c6.14,5.48,12.28,8.29,30.69,7.03
					c30.69-2.1,32.05-37.87,34.78-68.7s33.42-65.78,68.88-83.6s35.46-50.02,13.64-41.8c-28.64,6.85,9.55,21.93-28.64,38.37
					c-64.79,35.63-90.7,75.38-105.02,111.01s-57.29,22.61-57.29,15.08c0-7.54,23.19-40.43,0-45.23
					c-25.07-5.19-54.56,17.13-98.89,34.95c-25.92,10.42-88.32,27.41-85.25,15.08C454.82,605.35,559.67,580,621.05,558.76
					c-41.6-7.54-117.98,0-117.98,0s86.31-24.46,123.81-24.46c-42.28-16.45-103.04-28.71-103.04-28.71s92.54,6.79,122.09,10.44
					c-22.51-15.76-91.79-52.2-91.79-52.2s98.93,27.1,112.57,33.95c-4.36-15.35-64.08-71.36-64.08-71.36s81.84,48.26,94.79,62.65
					c-2.73-19.87-38.19-82.66-38.19-82.66s58.41,58.43,70.69,78.31c2.73-22.61-15.59-83.53-15.59-83.53S745.86,465.56,760.18,492.28
					z"/>
			</g>
		</g>
	</g>
</g>
<circle class="st10" cx="539.41" cy="539.9" r="540"/>
</svg>
