<?xml version="1.0" encoding="UTF-8"?>
<svg id="W_USDC_Token" data-name="W USDC Token" xmlns="http://www.w3.org/2000/svg" xmlns:xlink="http://www.w3.org/1999/xlink" viewBox="0 0 32 32">
  <defs>
    <style>
      .cls-1 {
        fill: none;
      }

      .cls-2 {
        fill: #151916;
      }

      .cls-3 {
        fill: #fff;
      }

      .cls-4 {
        fill: #fafafa;
      }

      .cls-5, .cls-6 {
        fill: #00f554;
      }

      .cls-6 {
        fill-rule: evenodd;
      }

      .cls-7 {
        fill: #3c85dd;
      }

      .cls-8 {
        clip-path: url(#clippath);
      }
    </style>
    <clipPath id="clippath">
      <rect class="cls-1" x="12.01" y="19.83" width="8" height="10"/>
    </clipPath>
  </defs>
  <g id="W_USDC_Token_Wrapped" data-name="W USDC Token Wrapped">
    <g>
      <g>
        <path class="cls-7" d="M29.73,23.93c1.39-2.41,2.12-5.14,2.12-7.92,0-2.78-.73-5.52-2.12-7.93-1.39-2.41-3.39-4.41-5.8-5.8C21.52.88,18.79.15,16,.15v15.85s13.72,7.93,13.72,7.93Z"/>
        <path class="cls-5" d="M29.78,24.13l-.13-.07-13.8-7.97V0h.15C18.81,0,21.57.74,24,2.14c2.43,1.4,4.45,3.43,5.86,5.86,1.4,2.43,2.14,5.2,2.14,8s-.74,5.57-2.14,8l-.07.13ZM16.15,15.91l13.52,7.81c1.33-2.35,2.03-5.02,2.03-7.72s-.73-5.47-2.1-7.85c-1.38-2.38-3.36-4.37-5.75-5.75-2.34-1.35-5-2.08-7.7-2.1v15.62Z"/>
      </g>
      <g>
        <path class="cls-2" d="M16,.15c-2.78,0-5.52.73-7.93,2.12-2.41,1.39-4.41,3.39-5.8,5.8C.88,10.48.15,13.22.15,16c0,2.78.73,5.52,2.12,7.93l13.73-7.92V.15Z"/>
        <path class="cls-5" d="M2.22,24.13l-.07-.13C.74,21.57,0,18.8,0,16,0,13.19.74,10.43,2.14,8c1.4-2.43,3.43-4.45,5.86-5.86S13.19,0,16,0h.15v16.09l-.07.04-13.86,8ZM15.85.3c-2.7.03-5.36.75-7.7,2.1-2.38,1.38-4.37,3.36-5.75,5.75C1.03,10.53.3,13.24.3,16c0,2.7.7,5.37,2.03,7.72l13.53-7.81V.3Z"/>
      </g>
      <g>
        <path class="cls-2" d="M2.27,23.93c1.39,2.41,3.39,4.41,5.8,5.8,2.41,1.39,5.14,2.12,7.92,2.12,2.78,0,5.52-.73,7.93-2.12,2.41-1.39,4.41-3.39,5.8-5.8l-13.73-7.93-13.73,7.93Z"/>
        <path class="cls-5" d="M16,32h0c-2.8,0-5.57-.74-8-2.14-2.43-1.4-4.45-3.43-5.86-5.86l-.07-.13.13-.07,13.8-7.97.07.04,13.85,8-.07.13c-1.4,2.43-3.43,4.45-5.86,5.86-2.43,1.4-5.19,2.14-7.99,2.14ZM2.48,23.98c1.37,2.33,3.33,4.27,5.67,5.62,2.38,1.38,5.1,2.1,7.85,2.1h0c2.75,0,5.46-.73,7.84-2.1,2.34-1.35,4.3-3.29,5.67-5.62l-13.52-7.81-13.52,7.81Z"/>
      </g>
    </g>
    <g id="W_Token" data-name="W Token">
      <g id="Wildcat">
        <g class="cls-8">
          <path class="cls-4" d="M20,27.14l-4,2.51-4-2.51v-7.31l2.25,5.59-1.96,1.59h2.67l1.05,2.38,1.05-2.38h2.67l-1.96-1.59,2.25-5.59v7.31h0Z"/>
        </g>
      </g>
      <g id="USDC">
        <path class="cls-3" d="M25.53,13.05c0-1.07-.64-1.44-1.93-1.6-.92-.12-1.1-.37-1.1-.79s.31-.7.92-.7c.54,0,.85.18,1.01.64.03.09.12.15.22.15h.49c.12,0,.22-.09.22-.22v-.03c-.12-.67-.67-1.19-1.38-1.26v-.73c0-.12-.09-.22-.25-.25h-.46c-.12,0-.22.09-.25.25v.7c-.92.12-1.5.73-1.5,1.5,0,1.01.61,1.41,1.89,1.56.85.15,1.13.34,1.13.82s-.43.82-1.01.82c-.79,0-1.07-.34-1.16-.79-.03-.12-.12-.18-.22-.18h-.52c-.12,0-.22.09-.22.22v.03c.12.76.61,1.32,1.62,1.47v.73c0,.12.09.22.25.25h.46c.12,0,.22-.09.25-.25v-.73c.92-.15,1.53-.79,1.53-1.62h0v.02Z"/>
        <path class="cls-3" d="M21.94,16.26c-2.39-.85-3.61-3.52-2.72-5.87.46-1.29,1.47-2.27,2.72-2.72.12-.06.18-.15.18-.31v-.43c0-.12-.06-.22-.18-.25-.03,0-.09,0-.12.03-2.9.92-4.5,4-3.58,6.92.54,1.71,1.86,3.03,3.58,3.58.12.06.25,0,.28-.12.03-.03.03-.06.03-.12v-.43c0-.09-.09-.22-.18-.28h0ZM25.19,6.72c-.12-.06-.25,0-.28.12-.03.03-.03.06-.03.12v.43c0,.12.09.25.18.31,2.39.85,3.61,3.52,2.72,5.87-.46,1.29-1.47,2.27-2.72,2.72-.12.06-.18.15-.18.31v.43c0,.12.06.22.18.25.03,0,.09,0,.12-.03,2.9-.92,4.5-4,3.58-6.92-.54-1.74-1.89-3.06-3.58-3.61h0Z"/>
      </g>
      <path id="Wintermute" class="cls-6" d="M10.96,7.82l.36-.09,2.81,5.58-.09.26-5.55,2.66h-.17l-5.55-2.66-.09-.26,2.81-5.58.36.09v5.12l2.41-2.37h.27l2.41,2.37v-5.12h.02ZM11.22,13.58l-1.84,1.79,3.74-1.79s-1.9,0-1.9,0ZM13.65,13.2h-2.32v-4.59l2.32,4.59ZM8.61,15.59l2.26-2.21-2.26-2.23v4.44ZM8.23,11.16v4.44l-2.26-2.21s2.26-2.23,2.26-2.23ZM5.51,13.2h-2.32l2.32-4.59v4.59ZM3.72,13.58l3.74,1.79-1.84-1.79s-1.9,0-1.9,0Z"/>
    </g>
  </g>
</svg>