<?xml version="1.0" standalone="no"?>
<!DOCTYPE svg PUBLIC "-//W3C//DTD SVG 20010904//EN"
 "http://www.w3.org/TR/2001/REC-SVG-20010904/DTD/svg10.dtd">
<svg version="1.0" xmlns="http://www.w3.org/2000/svg"
 width="512.000000pt" height="512.000000pt" viewBox="0 0 512.000000 512.000000"
 preserveAspectRatio="xMidYMid meet">
<metadata>
Created by potrace 1.16, written by Peter Selinger 2001-2019
</metadata>
<g transform="translate(0.000000,512.000000) scale(0.100000,-0.100000)"
fill="#000000" stroke="none">
<path d="M2371 4759 c-85 -8 -295 -49 -288 -55 2 -3 57 5 122 16 550 94 1107
-58 1576 -431 102 -81 256 -240 335 -344 31 -41 59 -75 61 -75 12 0 -98 139
-192 244 -147 165 -395 346 -634 464 -320 159 -626 215 -980 181z"/>
<path d="M1914 4711 c-308 -113 -539 -253 -782 -471 -280 -251 -477 -544 -604
-895 -90 -251 -128 -476 -128 -765 0 -484 115 -874 368 -1250 109 -162 217
-288 349 -405 553 -493 1256 -647 1935 -425 123 41 280 110 292 128 4 6 -22
-2 -56 -17 -175 -79 -443 -143 -676 -163 -317 -26 -652 37 -956 181 -139 65
-207 106 -346 210 -260 193 -489 472 -635 776 -138 287 -199 543 -212 885 -18
511 128 984 430 1390 93 125 306 338 433 433 56 41 148 104 205 140 94 58 458
257 519 285 65 29 -19 6 -136 -37z"/>
<path d="M2450 4643 c-166 -27 -355 -95 -505 -182 -55 -32 -107 -60 -115 -63
-8 -3 -45 6 -82 19 -102 35 -137 29 -157 -28 -13 -38 -14 -139 -2 -171 8 -20
0 -32 -55 -91 l-64 -67 -26 40 c-35 52 -39 51 -12 -4 20 -42 20 -46 4 -70 -16
-26 -17 -26 -54 -10 -44 19 -131 44 -152 43 -8 0 10 -8 40 -18 67 -22 120 -48
120 -61 0 -23 -38 -29 -91 -15 -30 8 -72 14 -94 14 -25 -1 -31 -3 -15 -6 69
-11 126 -24 139 -32 12 -8 10 -15 -11 -43 -41 -54 -51 -80 -58 -148 -4 -36
-11 -74 -15 -85 -8 -18 -7 -18 8 -7 9 8 20 11 25 8 18 -11 22 -80 7 -121 -17
-48 -19 -135 -4 -188 10 -37 9 -39 -45 -97 -30 -33 -60 -76 -68 -96 -11 -31
-16 -35 -38 -29 -14 3 -70 8 -125 10 -98 4 -99 4 -30 -6 90 -12 175 -37 175
-50 0 -8 -26 -9 -84 -4 -46 3 -126 3 -178 -2 l-93 -8 140 -6 c144 -6 215 -16
215 -29 0 -4 -39 -12 -87 -19 -86 -12 -247 -50 -240 -57 1 -2 45 6 97 16 180
37 321 18 188 -25 -70 -23 -182 -81 -205 -107 -14 -16 -9 -15 24 6 44 29 194
86 228 86 11 0 -30 -24 -90 -54 -61 -30 -126 -68 -145 -85 l-35 -31 59 35 c52
30 149 71 214 90 39 11 23 -9 -35 -44 -63 -39 -136 -101 -128 -109 3 -3 -8
-19 -23 -36 -16 -17 -42 -49 -57 -71 -26 -37 -24 -36 21 11 27 29 69 67 94 87
56 43 159 101 166 94 4 -3 -5 -21 -19 -39 -41 -55 -104 -179 -126 -247 -28
-86 -26 -102 3 -24 29 77 73 146 126 198 l41 40 -16 -39 c-21 -51 -45 -177
-44 -229 1 -38 2 -36 10 18 11 71 65 251 79 260 13 8 13 11 -10 -80 -11 -43
-20 -92 -19 -109 0 -24 4 -19 14 24 18 71 43 130 55 130 6 0 10 -19 11 -42 0
-24 4 -61 8 -83 8 -36 9 -32 10 35 2 61 4 70 12 50 15 -37 51 -73 60 -59 12
20 44 0 74 -48 16 -27 31 -52 33 -56 2 -4 -18 -31 -45 -60 -27 -29 -74 -86
-104 -127 -53 -71 -202 -317 -247 -406 -29 -58 -61 -144 -54 -144 4 0 23 21
42 46 75 98 71 97 49 12 -66 -260 -29 -530 104 -748 21 -36 53 -80 71 -99 26
-30 27 -32 6 -18 -14 9 -44 29 -68 44 -24 16 -82 56 -130 89 -48 34 -89 60
-92 57 -3 -3 47 -55 110 -116 103 -100 130 -120 255 -189 157 -86 301 -156
450 -218 55 -23 107 -44 115 -48 8 -3 -32 32 -90 79 -473 380 -667 724 -647
1143 10 200 64 346 194 527 30 42 69 91 88 109 l33 32 70 -24 70 -23 -49 -65
c-60 -78 -121 -201 -145 -290 -26 -94 -23 -270 5 -375 11 -44 53 -145 93 -225
39 -80 73 -155 74 -168 5 -48 132 -202 244 -296 184 -154 409 -271 588 -306
96 -19 63 -33 -75 -33 -172 1 -321 39 -518 134 -133 63 -216 118 -294 192
l-64 62 45 -60 c136 -180 370 -333 610 -396 99 -27 315 -32 413 -10 185 41
353 120 486 227 44 35 83 63 87 61 13 -4 137 98 212 175 73 74 171 211 217
301 35 69 95 227 91 239 -2 5 -18 -26 -36 -70 -60 -146 -184 -333 -292 -437
l-52 -50 31 51 c142 233 246 570 270 874 6 69 13 141 16 160 5 30 3 28 -14
-15 -11 -27 -41 -108 -66 -180 -187 -522 -395 -849 -643 -1009 -190 -123 -334
-128 -530 -20 -133 75 -297 218 -382 336 -19 25 -30 35 -30 24 0 -48 126 -233
228 -333 95 -95 200 -136 379 -149 107 -7 134 -15 88 -25 -54 -12 -159 -9
-223 6 -84 20 -142 51 -239 127 -44 35 -128 100 -186 146 -329 259 -508 562
-509 862 0 158 47 299 154 463 49 74 52 77 89 77 22 0 39 -3 39 -6 0 -3 -11
-20 -24 -37 -72 -94 -120 -249 -120 -387 0 -144 35 -236 123 -331 l50 -54 -39
80 c-52 105 -70 180 -70 285 0 149 42 270 135 399 42 56 56 67 132 103 47 22
89 36 93 31 4 -4 15 -35 24 -68 13 -47 15 -51 12 -20 -2 22 -8 55 -11 72 -6
26 -4 34 11 40 12 5 26 -3 47 -28 l30 -34 -22 37 c-12 21 -19 42 -16 48 4 6
-45 63 -109 126 -106 105 -128 141 -35 57 21 -19 39 -30 39 -24 0 6 -6 14 -14
17 -21 8 -79 84 -64 84 19 0 138 -72 138 -83 0 -5 -14 -14 -30 -20 -17 -6 -29
-14 -28 -18 2 -3 36 -43 77 -87 41 -45 90 -107 108 -139 18 -32 33 -55 33 -52
0 13 -32 83 -55 119 -21 33 -22 40 -10 50 26 22 40 9 168 -150 26 -33 26 -32
-4 18 -17 29 -54 77 -81 107 -54 59 -54 67 -3 35 50 -31 175 -203 175 -242 0
-16 1 -15 -220 -141 -165 -94 -314 -190 -326 -208 -3 -5 30 7 73 27 43 20 143
65 223 99 80 34 178 78 217 99 40 20 75 36 78 36 3 0 13 -15 21 -32 l15 -33
-7 30 c-3 17 -7 35 -8 41 0 6 36 43 81 82 l82 71 32 -42 c59 -77 58 -71 -5 35
-9 14 -4 24 21 50 l32 32 27 -24 c14 -14 35 -37 46 -52 l19 -28 -46 -77 c-150
-252 -359 -463 -662 -670 -62 -42 -111 -78 -109 -80 2 -2 48 12 102 33 112 41
328 147 484 237 58 33 108 62 112 64 26 14 -71 -182 -179 -362 l-55 -90 87 85
c114 112 193 210 328 410 96 143 131 185 262 315 208 206 281 307 359 496 82
199 115 437 86 616 -23 147 -102 323 -187 418 -28 31 -32 34 -17 10 69 -113
108 -192 134 -272 112 -347 9 -709 -293 -1038 l-55 -60 -59 56 c-52 51 -170
138 -204 152 -18 7 58 76 83 77 10 0 50 -9 90 -19 89 -23 149 -34 128 -22 -8
4 -52 18 -97 31 -46 12 -83 26 -83 31 0 4 16 17 35 29 51 32 148 141 184 209
43 82 71 197 71 296 0 93 -19 167 -61 241 -37 65 -64 90 -35 32 15 -31 22 -66
24 -130 8 -187 -72 -374 -232 -541 -54 -58 -34 -58 -311 8 -99 24 -198 47
-220 50 -100 15 -101 17 -52 71 26 28 47 38 109 54 108 27 181 69 209 122 8
16 1 13 -28 -11 -54 -44 -126 -69 -219 -77 -84 -7 -106 -14 -141 -46 l-22 -20
-15 33 -14 34 -1 -73 c-1 -65 -3 -73 -18 -68 -10 2 -56 7 -103 11 -114 8 -140
14 -140 31 0 11 22 14 113 15 72 0 105 3 92 9 -11 5 -59 9 -107 9 -75 1 -89 4
-98 20 -9 18 -2 22 71 46 44 15 79 29 77 31 -2 2 -40 -6 -85 -18 l-81 -21 -27
21 c-15 12 -37 22 -49 22 -17 -1 -15 -4 10 -14 44 -19 50 -34 19 -46 -39 -15
-53 -12 -66 11 -9 17 -8 24 2 31 17 11 -28 0 -51 -13 -12 -7 -11 -8 6 -9 11 0
29 -9 38 -19 17 -18 16 -19 -16 -26 -18 -4 -59 -16 -92 -26 -32 -11 -74 -19
-93 -19 -23 0 -33 -4 -30 -12 2 -7 15 -12 28 -10 139 14 155 14 168 -2 12 -14
10 -16 -15 -17 -16 -1 -34 -1 -41 0 -6 1 -14 -3 -18 -8 -3 -6 -32 -13 -65 -17
-33 -4 -60 -11 -60 -15 0 -5 5 -9 11 -9 25 0 157 22 186 31 37 12 110 -12 97
-32 -6 -11 -40 -8 -93 7 -16 5 -22 4 -18 -3 4 -7 -7 -13 -26 -17 -17 -3 -62
-11 -99 -18 -38 -7 -68 -15 -68 -19 0 -13 42 -21 53 -10 7 7 20 6 44 -4 34
-14 43 -9 21 13 -17 17 30 15 62 -3 l25 -13 -30 -7 c-17 -3 -39 -10 -50 -14
-40 -15 -198 -12 -229 4 -30 16 -30 16 -11 -5 10 -11 35 -25 56 -32 40 -11 77
-43 66 -55 -9 -8 -127 21 -173 43 -38 18 -59 50 -69 104 -5 27 0 48 22 90 26
51 32 56 88 75 45 15 63 27 78 52 39 68 -21 88 -230 77 -54 -3 -118 -1 -143 4
l-45 8 55 49 c183 163 328 333 424 497 100 172 159 244 295 362 222 192 401
296 591 341 88 21 95 24 45 19 -198 -20 -396 -122 -645 -332 -138 -116 -218
-212 -281 -339 -56 -112 -112 -183 -283 -358 -105 -108 -108 -110 -118 -85
-12 28 -17 145 -6 155 4 4 17 0 30 -9 49 -35 127 -13 150 43 13 30 17 264 5
252 -5 -5 -13 -40 -19 -79 l-11 -70 -31 33 c-17 18 -51 39 -75 46 -58 17 -71
45 -45 101 26 58 126 158 159 158 18 0 25 5 25 20 0 26 148 180 255 267 387
312 905 403 1307 229 129 -56 186 -95 298 -206 116 -115 190 -217 293 -405
168 -306 226 -516 228 -819 l1 -161 14 60 c8 33 17 121 21 195 l7 135 13 -55
c43 -183 56 -288 57 -450 0 -153 -3 -174 -31 -285 -32 -124 -72 -238 -117
-337 -14 -32 -24 -58 -22 -58 6 0 88 133 133 216 l38 71 5 -126 c8 -200 4
-449 -9 -531 -13 -90 -53 -272 -58 -267 -2 2 1 60 7 128 7 77 7 147 1 184 -8
55 -9 56 -10 18 -2 -63 -48 -326 -76 -430 -93 -349 -308 -735 -572 -1023 l-68
-75 65 50 c205 158 450 465 583 730 170 340 240 786 191 1217 -13 115 -14 151
-4 206 19 101 13 426 -10 581 -42 289 -137 569 -250 736 -14 22 -48 81 -74
130 -214 406 -490 632 -855 700 -77 14 -342 19 -411 8z m-712 -253 c28 -17 52
-32 52 -35 0 -7 -110 -88 -113 -84 -20 28 -38 62 -34 65 2 2 10 -7 17 -21 17
-31 31 -31 66 -2 l27 23 -33 27 c-63 53 -103 19 -84 -74 8 -37 8 -52 -2 -60
-8 -7 -14 -6 -19 2 -13 20 -17 133 -6 162 14 37 60 36 129 -3z m-338 -715 c0
-12 -28 -35 -44 -35 -8 0 -7 35 1 43 12 13 43 7 43 -8z m55 -115 c-22 -24 -58
-26 -75 -5 -11 14 -10 14 12 6 19 -7 31 -6 44 4 28 21 40 18 19 -5z m-145
-404 c25 -3 86 0 136 8 91 13 144 12 144 -5 0 -5 -11 -11 -25 -14 -14 -3 -36
-7 -50 -10 -43 -9 -78 -48 -85 -96 l-7 -44 -2 40 c0 23 6 51 15 63 21 30 14
35 -33 28 -64 -11 -69 -18 -50 -68 23 -59 21 -73 -2 -22 -23 51 -63 82 -113
90 -38 7 -48 20 -27 41 7 7 20 8 33 4 11 -5 41 -11 66 -15z m-43 -136 c17 0
158 -142 177 -178 17 -32 17 -33 -13 -62 -29 -30 -57 -36 -96 -21 -19 8 -19 8
3 20 33 17 27 28 -14 27 -24 -1 -39 4 -42 13 -3 9 0 12 9 9 8 -3 23 -2 34 2
16 7 12 9 -22 15 -23 4 -50 16 -59 26 -19 21 -16 23 19 10 14 -6 29 -6 38 0
11 7 9 9 -8 9 -12 0 -35 11 -50 25 l-28 24 25 1 25 1 -28 15 c-31 17 -47 50
-47 97 l0 31 33 -32 c18 -18 38 -32 44 -32z m791 33 c6 -20 -26 -27 -56 -14
-21 10 -23 14 -11 22 19 12 61 7 67 -8z m-75 -17 c17 -13 16 -14 -10 -23 -27
-10 -101 2 -90 14 5 4 55 19 77 22 3 0 13 -6 23 -13z m67 -40 c0 -28 -26 -38
-62 -23 l-33 14 35 11 c49 14 60 14 60 -2z m218 -32 c57 -6 63 -12 31 -32 -18
-11 -37 -10 -125 9 -57 12 -101 26 -98 30 5 9 55 7 192 -7z m293 -38 c364 -83
429 -101 406 -109 -12 -4 -36 -22 -54 -39 l-32 -31 -138 51 c-76 28 -178 63
-228 78 -103 32 -108 35 -99 57 8 22 22 21 145 -7z m-381 -6 c102 -15 105 -17
89 -36 -15 -18 -34 -16 -147 18 -47 14 -68 24 -60 29 7 5 20 7 28 5 8 -3 49
-10 90 -16z m203 3 c-7 -2 -21 -2 -30 0 -10 3 -4 5 12 5 17 0 24 -2 18 -5z
m-430 -22 c17 -6 16 -8 -8 -19 -27 -13 -65 -2 -65 18 0 11 46 12 73 1z m185
-22 c48 -12 91 -25 95 -29 5 -4 -5 -17 -21 -29 l-29 -21 -76 44 c-42 24 -74
46 -70 50 8 8 1 9 101 -15z m469 -58 c98 -33 196 -67 218 -77 37 -16 39 -17
18 -26 -16 -8 -44 -2 -125 30 -56 22 -154 56 -215 77 -105 34 -140 55 -94 55
11 0 100 -27 198 -59z m-474 -11 c15 -7 27 -17 27 -21 0 -22 -25 -15 -89 23
-115 69 -89 68 62 -2z m-973 29 c-19 -12 -61 -39 -94 -61 -32 -21 -60 -37 -62
-35 -5 5 168 117 181 117 5 0 -6 -10 -25 -21z m1358 -40 c70 -23 159 -54 197
-69 39 -15 78 -30 89 -34 18 -6 18 -7 1 -26 -10 -11 -23 -20 -28 -20 -5 0 -37
17 -71 38 -72 46 -132 74 -239 112 -71 25 -102 40 -83 40 4 0 64 -19 134 -41z
m-208 -6 c0 -7 -39 17 -46 28 -3 6 5 3 20 -6 14 -10 26 -19 26 -22z m743 20
c-7 -2 -19 -2 -25 0 -7 3 -2 5 12 5 14 0 19 -2 13 -5z m-1832 -21 c-5 -9 -20
-26 -32 -37 -24 -20 -24 -20 -9 0 36 51 60 72 41 37z m1384 -77 c50 -25 102
-55 118 -67 l28 -23 -35 -27 -35 -28 -90 68 c-70 52 -165 109 -229 138 -1 1 0
8 4 17 5 13 14 12 77 -9 40 -13 113 -44 162 -69z m-866 70 c35 -17 48 -45 23
-45 -10 0 -28 14 -40 30 -25 34 -23 36 17 15z m191 -15 c14 -10 38 -33 55 -52
16 -18 23 -27 15 -20 -8 6 -22 12 -32 12 -28 0 -90 34 -118 65 l-25 28 40 -8
c21 -3 51 -15 65 -25z m-100 -13 c20 -17 50 -54 68 -82 18 -27 23 -37 10 -21
-24 31 -37 44 -103 101 -23 20 -34 35 -25 35 8 0 31 -15 50 -33z m438 -66 c64
-52 70 -55 51 -20 -9 18 -8 19 8 11 35 -19 138 -99 197 -153 l59 -53 -49 -43
c-27 -24 -52 -43 -56 -43 -4 0 -17 18 -28 41 -58 112 -163 240 -255 308 -16
12 -21 18 -10 12 11 -5 48 -32 83 -60z m315 -69 c42 -31 77 -61 77 -67 0 -6
-13 -24 -30 -40 l-30 -29 -67 66 c-38 35 -102 87 -143 114 -41 26 -77 50 -79
51 -2 2 -1 6 3 10 3 4 34 -13 69 -36 l62 -43 -47 47 c-27 25 -48 51 -48 56 0
15 140 -63 233 -129z m-346 35 c4 -6 -14 6 -40 27 -26 21 -47 40 -47 43 0 7
78 -56 87 -70z m-511 32 c16 -6 46 -12 67 -13 38 -3 120 -51 121 -71 1 -14
-59 -42 -133 -61 -116 -29 -226 3 -266 79 l-20 38 30 26 c27 24 34 25 101 20
39 -4 84 -12 100 -18z m330 -65 c15 -25 25 -46 23 -48 -2 -2 -18 21 -36 50
-17 30 -27 52 -22 49 5 -4 21 -26 35 -51z m999 -70 c33 -24 76 -57 95 -73 l35
-30 -70 -70 c-38 -39 -74 -71 -80 -71 -11 0 -100 145 -100 163 0 7 -24 34 -54
62 l-53 50 38 32 37 33 46 -26 c25 -15 73 -46 106 -70z m-193 -26 c26 -31 28
-38 17 -62 -7 -14 -15 -25 -19 -24 -3 2 -25 24 -48 50 l-43 46 23 16 c29 20
35 18 70 -26z m128 -185 l29 -50 -71 -63 c-102 -92 -248 -207 -248 -196 0 3
23 31 51 63 83 95 129 181 160 303 l11 45 20 -26 c11 -14 32 -48 48 -76z
m-1795 -610 c1 -194 13 -295 52 -418 37 -117 66 -170 174 -320 12 -16 -5 -1
-37 34 -175 190 -243 371 -232 623 4 88 31 258 41 258 1 0 2 -80 2 -177z"/>
<path d="M2757 4336 c-20 -8 -54 -26 -74 -42 -20 -15 -55 -37 -77 -49 -50 -25
-53 -36 -23 -71 l25 -29 14 35 c18 43 86 106 142 131 26 12 66 19 111 20 51 1
63 3 45 9 -39 13 -121 10 -163 -4z"/>
<path d="M2965 4300 c106 -57 160 -115 171 -183 5 -29 3 -27 -19 16 -49 95
-135 155 -236 164 -63 6 -104 -9 -153 -55 -39 -36 -35 -48 17 -61 46 -12 59
-27 28 -33 -12 -3 1 -13 36 -28 30 -13 90 -50 132 -81 101 -75 129 -89 182
-89 52 0 67 13 74 69 14 104 -81 235 -202 278 -64 23 -69 23 -30 3z m15 -95
c27 -14 80 -73 80 -88 0 -4 -16 11 -36 32 -57 64 -129 76 -174 31 -20 -20 -27
-16 -12 6 23 35 94 44 142 19z"/>
<path d="M4255 3955 c29 -60 101 -209 160 -329 83 -167 109 -230 111 -265 1
-25 14 -82 28 -126 70 -216 104 -411 113 -640 18 -475 -110 -900 -371 -1230
l-47 -60 51 55 c59 63 194 264 263 390 59 109 111 266 138 416 18 98 22 159
23 349 0 145 -4 260 -12 310 -21 124 -71 321 -103 402 -34 87 -35 93 -9 93 11
0 20 2 20 5 0 14 -80 197 -137 310 -65 132 -182 317 -246 390 -35 40 -35 40
18 -70z"/>
<path d="M1535 4010 c-9 -16 -13 -30 -11 -30 3 0 12 14 21 30 9 17 13 30 11
30 -3 0 -12 -13 -21 -30z"/>
<path d="M2790 4024 c19 -8 61 -35 92 -60 31 -24 88 -59 125 -77 77 -36 150
-42 239 -17 51 14 51 15 37 37 -19 29 -28 29 -65 -2 -54 -46 -135 -30 -261 51
-88 57 -144 84 -177 83 -22 0 -21 -1 10 -15z"/>
<path d="M2209 4002 c-82 -52 -139 -135 -160 -232 -6 -27 -15 -52 -20 -56 -15
-9 -39 16 -39 39 0 20 0 20 -21 1 -58 -52 -63 -109 -13 -164 l35 -39 -37 -68
-38 -68 51 47 c68 63 111 75 188 53 179 -50 226 -43 353 59 64 50 95 67 147
81 64 18 70 18 134 1 66 -17 125 -15 161 5 10 6 4 8 -20 9 -22 0 -75 20 -145
55 -92 47 -121 57 -180 61 -38 4 -94 13 -124 21 -107 30 -233 -7 -312 -91 -48
-51 -63 -56 -79 -27 -36 68 13 195 109 284 34 31 61 57 59 57 -2 0 -24 -13
-49 -28z m111 -260 c0 -24 -74 -60 -85 -41 -9 14 33 49 60 49 14 0 25 -4 25
-8z m122 -101 c-59 -81 -166 -93 -222 -26 -22 26 -6 26 30 0 24 -18 47 -25 78
-25 38 0 50 5 83 39 28 28 39 48 41 72 l1 34 4 -34 c3 -23 -2 -43 -15 -60z"/>
<path d="M1481 3907 c-20 -25 -41 -86 -40 -119 0 -26 4 -21 15 27 8 32 21 70
29 82 17 25 14 31 -4 10z"/>
<path d="M2230 3839 c-36 -15 -88 -57 -101 -82 -10 -19 -8 -19 17 5 16 15 54
41 84 57 52 29 53 41 0 20z"/>
<path d="M2639 3487 c-71 -66 -205 -123 -324 -140 -16 -2 2 -5 41 -6 126 -2
231 47 301 142 19 26 33 47 31 47 -1 -1 -24 -20 -49 -43z"/>
<path d="M2440 3456 c-49 -28 -64 -31 -136 -31 -67 0 -86 4 -103 19 -15 14
-20 15 -16 5 3 -8 20 -24 38 -34 67 -40 196 -14 259 52 26 28 26 28 -42 -11z"/>
<path d="M2360 3206 c0 -15 94 -57 139 -63 79 -9 62 12 -31 37 -44 12 -87 24
-95 27 -7 3 -13 3 -13 -1z"/>
<path d="M1842 3103 c-15 -6 -6 -23 14 -23 8 0 14 7 14 15 0 15 -6 17 -28 8z"/>
<path d="M1767 3083 c-13 -13 -7 -21 13 -16 11 3 17 9 14 14 -6 11 -18 12 -27
2z"/>
<path d="M1650 2990 c-12 -8 -9 -10 12 -10 15 0 30 5 33 10 8 13 -25 13 -45 0z"/>
<path d="M1586 2928 c7 -11 114 -10 114 1 0 5 -27 8 -59 8 -33 -1 -57 -5 -55
-9z"/>
<path d="M1632 2879 c3 -8 18 -15 34 -17 33 -4 24 11 -15 23 -17 5 -22 4 -19
-6z"/>
<path d="M1418 1955 c-15 -79 -9 -239 12 -319 22 -87 85 -215 131 -266 30 -35
31 -35 10 -3 -85 128 -132 291 -140 488 -4 103 -8 130 -13 100z"/>
<path d="M1626 1780 c10 -70 51 -206 81 -263 40 -79 157 -247 165 -237 2 3 9
16 15 30 9 22 3 35 -58 120 -72 100 -143 227 -185 332 -24 63 -24 63 -18 18z"/>
</g>
</svg>