<?xml version="1.0" encoding="UTF-8" standalone="no"?>
<!-- Created with Inkscape (http://www.inkscape.org/) -->

<svg
   width="130mm"
   height="130mm"
   viewBox="0 0 130 130"
   version="1.1"
   id="svg5"
   xml:space="preserve"
   xmlns="http://www.w3.org/2000/svg"
   xmlns:svg="http://www.w3.org/2000/svg"><defs
     id="defs2" /><g
     style="fill:none"
     id="g615"
     transform="matrix(0.86666667,0,0,0.86666667,-43.713367,-43.333333)"><path
       fill-rule="evenodd"
       clip-rule="evenodd"
       d="m 112.951,149.999 h 24.976 v -25 H 112.951 V 99.9991 h 49.952 V 174.999 H 87.976 v -25 H 63 V 50 h 99.903 V 75.0001 H 87.976 v 24.999 49.9999 z"
       fill="#7180f5"
       id="path600" /><path
       d="m 187.877,74.9982 h -24.976 v 25 h 24.976 z"
       fill="#ff8099"
       id="path602" /><path
       d="M 87.976,175 H 63 v 25 h 24.976 z"
       fill="#fbfaff"
       id="path604" /></g><g
     id="g878"
     transform="matrix(0.0325,0,0,0.0325,65,65)"><path
       d="m 1000,2000 c 554.17,0 1000,-445.83 1000,-1000 C 2000,445.83 1554.17,0 1000,0 445.83,0 0,445.83 0,1000 0,1554.17 445.83,2000 1000,2000 Z"
       fill="#2775ca"
       id="path863" /><path
       d="m 1275,1158.33 c 0,-145.83 -87.5,-195.83 -262.5,-216.66 -125,-16.67 -150,-50 -150,-108.34 0,-58.34 41.67,-95.83 125,-95.83 75,0 116.67,25 137.5,87.5 4.17,12.5 16.67,20.83 29.17,20.83 h 66.66 c 16.67,0 29.17,-12.5 29.17,-29.16 V 812.5 C 1233.33,720.83 1158.33,650 1062.5,641.67 v -100 c 0,-16.67 -12.5,-29.17 -33.33,-33.34 h -62.5 c -16.67,0 -29.17,12.5 -33.34,33.34 v 95.83 c -125,16.67 -204.16,100 -204.16,204.17 0,137.5 83.33,191.66 258.33,212.5 116.67,20.83 154.17,45.83 154.17,112.5 0,66.67 -58.34,112.5 -137.5,112.5 -108.34,0 -145.84,-45.84 -158.34,-108.34 -4.16,-16.66 -16.66,-25 -29.16,-25 h -70.84 c -16.66,0 -29.16,12.5 -29.16,29.17 v 4.17 c 16.66,104.16 83.33,179.16 220.83,200 v 100 c 0,16.66 12.5,29.16 33.33,33.33 h 62.5 c 16.67,0 29.17,-12.5 33.34,-33.33 v -100 c 125,-20.84 208.33,-108.34 208.33,-220.84 z"
       fill="#ffffff"
       id="path865" /><path
       d="m 787.5,1595.83 c -325,-116.66 -491.67,-479.16 -370.83,-800 62.5,-175 200,-308.33 370.83,-370.83 16.67,-8.33 25,-20.83 25,-41.67 V 325 c 0,-16.67 -8.33,-29.17 -25,-33.33 -4.17,0 -12.5,0 -16.67,4.16 -395.83,125 -612.5,545.84 -487.5,941.67 75,233.33 254.17,412.5 487.5,487.5 16.67,8.33 33.34,0 37.5,-16.67 4.17,-4.16 4.17,-8.33 4.17,-16.66 v -58.34 c 0,-12.5 -12.5,-29.16 -25,-37.5 z m 441.67,-1300 c -16.67,-8.33 -33.34,0 -37.5,16.67 -4.17,4.17 -4.17,8.33 -4.17,16.67 v 58.33 c 0,16.67 12.5,33.33 25,41.67 325,116.66 491.67,479.16 370.83,800 -62.5,175 -200,308.33 -370.83,370.83 -16.67,8.33 -25,20.83 -25,41.67 V 1700 c 0,16.67 8.33,29.17 25,33.33 4.17,0 12.5,0 16.67,-4.16 395.83,-125 612.5,-545.84 487.5,-941.67 -75,-237.5 -258.34,-416.67 -487.5,-491.67 z"
       fill="#ffffff"
       id="path867" /></g></svg>
