<?xml version="1.0" encoding="UTF-8" standalone="no"?>
<!-- Created with Inkscape (http://www.inkscape.org/) -->

<svg
   width="130mm"
   height="130mm"
   viewBox="0 0 130 130"
   version="1.1"
   id="svg5"
   xml:space="preserve"
   xmlns="http://www.w3.org/2000/svg"
   xmlns:svg="http://www.w3.org/2000/svg"><defs
     id="defs2" /><g
     style="fill:none"
     id="g615"
     transform="matrix(0.86666667,0,0,0.86666667,-43.713367,-43.333333)"><path
       fill-rule="evenodd"
       clip-rule="evenodd"
       d="m 112.951,149.999 h 24.976 v -25 H 112.951 V 99.9991 h 49.952 V 174.999 H 87.976 v -25 H 63 V 50 h 99.903 V 75.0001 H 87.976 v 24.999 49.9999 z"
       fill="#7180f5"
       id="path600" /><path
       d="m 187.877,74.9982 h -24.976 v 25 h 24.976 z"
       fill="#ff8099"
       id="path602" /><path
       d="M 87.976,175 H 63 v 25 h 24.976 z"
       fill="#fbfaff"
       id="path604" /></g><g
     id="layer1"
     transform="translate(62.718664,-74.899607)"><g
       id="g230"
       style="fill:none;fill-rule:evenodd;stroke:none;stroke-width:1"
       transform="matrix(1.041229,0,0,1.041229,1.0586805,138.80717)"><path
         d="m 17.941829,63.47541 c 16.086537,0 16.086537,-0.239506 18.81412,-1.049181 3.564522,-1.058118 -10.064014,-10.491803 -18.81412,-10.491803 -8.7501058,0 -15.8434683,2.583537 -15.8434683,5.770492 0,3.186955 7.0937146,5.770492 15.8434683,5.770492 z"
         id="Oval"
         fill="#000000"
         fill-rule="nonzero" /><path
         d="m 54.469526,14.40455 0.739927,0.797362 -0.646838,0.874573 C 33.582811,44.442745 21.497102,57.286259 16.369257,55.563669 13.245881,54.514437 10.113578,51.358955 6.9812012,46.776949 5.8801829,45.166392 4.8462878,43.470447 3.9059628,41.782752 3.27979,40.658898 2.7497946,39.633895 2.4746083,39.056572 2.1235755,38.320127 1.9753707,37.866438 1.8577908,37.270622 c -0.00717,-0.03651 -0.00717,-0.03651 -0.013991,-0.07161 -0.049076,-0.252944 -0.066055,-0.332879 -0.1027387,-0.471139 -0.631292,-2.379293 -0.95417555,-4.844326 -0.95417555,-7.350828 0,-15.789911 12.80025245,-28.59016375 28.59016345,-28.59016375 4.946784,0 9.713823,1.25896975 13.938535,3.62227705 l 0.109073,0.068248 C 46.883614,6.885575 50.562802,10.194573 54.469526,14.40455 Z M 41.97904,6.6670483 C 38.15706,4.5413966 33.850693,3.4098361 29.377049,3.4098361 c -14.341296,0 -25.9672129,11.6259169 -25.9672129,25.9672129 0,2.278925 0.2932689,4.517867 0.8664547,6.678162 0.05668,0.213622 0.082313,0.334303 0.1424422,0.644217 0.00631,0.03248 0.00631,0.03248 0.012379,0.06337 0.075885,0.384536 0.1559459,0.629619 0.4112243,1.165177 0.2510383,0.526663 0.7555248,1.502331 1.3549302,2.578144 0.9037714,1.622088 1.8969394,3.251226 2.949265,4.790557 2.8300515,4.139768 5.6367375,6.967222 8.0579815,7.780588 C 20.4338,54.162072 32.590753,41.293069 51.803015,15.395333 48.315011,11.713656 45.038398,8.8041924 41.97904,6.6670483 Z"
         id="path219"
         fill="#000000"
         fill-rule="nonzero" /><path
         d="M 41.97904,6.6670483 C 38.15706,4.5413966 33.850693,3.4098361 29.377049,3.4098361 c -14.341296,0 -25.9672129,11.6259169 -25.9672129,25.9672129 0,2.278925 0.2932689,4.517867 0.8664547,6.678162 0.05668,0.213622 0.082313,0.334303 0.1424422,0.644217 0.00631,0.03248 0.00631,0.03248 0.012379,0.06337 0.075885,0.384536 0.1559459,0.629619 0.4112243,1.165177 0.2510383,0.526663 0.7555248,1.502331 1.3549302,2.578144 0.9037714,1.622088 1.8969394,3.251226 2.949265,4.790557 2.8300515,4.139768 5.6367375,6.967222 8.0579815,7.780588 C 20.4338,54.162072 32.590753,41.293069 51.803015,15.395333 48.315011,11.713656 45.038398,8.8041924 41.97904,6.6670483 Z"
         id="Path"
         fill="#ec1c79"
         fill-rule="nonzero" /><path
         d="m 34.622951,63.213115 c -15.789912,0 -28.5901641,-12.800253 -28.5901641,-28.590164 0,-15.789912 12.8002521,-28.5901641 28.5901641,-28.5901641 15.789911,0 28.590164,12.8002521 28.590164,28.5901641 0,15.789911 -12.800253,28.590164 -28.590164,28.590164 z m 0,-2.622951 c 14.341296,0 25.967213,-11.625917 25.967213,-25.967213 0,-14.341296 -11.625917,-25.9672133 -25.967213,-25.9672133 -14.341296,0 -25.9672133,11.6259173 -25.9672133,25.9672133 0,14.341296 11.6259173,25.967213 25.9672133,25.967213 z"
         id="path222"
         fill="#000000"
         fill-rule="nonzero" /><path
         d="m 34.622951,60.590164 c 14.341296,0 25.967213,-11.625917 25.967213,-25.967213 0,-14.341296 -11.625917,-25.9672133 -25.967213,-25.9672133 -14.341296,0 -25.9672133,11.6259173 -25.9672133,25.9672133 0,14.341296 11.6259173,25.967213 25.9672133,25.967213 z"
         id="path224"
         fill="#ffffff"
         fill-rule="nonzero" /><path
         d="m 15.198426,39.942295 -3.437114,-10.35541 h 3.011147 l 1.792,5.948853 1.982951,-5.97823 h 2.452983 l 1.982951,5.97823 1.792,-5.948853 h 2.952394 l -3.437115,10.35541 H 21.808262 L 19.73718,34.02282 17.680787,39.942295 Z m 13.660328,-0.07344 v -10.28197 h 8.269639 v 2.423607 h -5.449442 v 1.556983 h 4.935344 v 2.247345 h -4.935344 v 1.630426 h 5.522885 v 2.423607 z m 12.308984,0 v -7.784919 h -3.08459 v -2.497049 h 9.018754 v 2.497049 h -3.084591 v 7.784919 z m 7.182688,0 V 29.586885 H 51.2 v 3.848394 h 3.657443 v -3.848394 h 2.849573 V 39.868853 H 54.857443 V 35.961705 H 51.2 v 3.907148 z"
         id="WETH"
         fill="#000000" /><path
         d="M 2.4906502,26.494109 C 1.7650687,26.131319 1.4709686,25.249019 1.8337594,24.523437 2.1965502,23.797855 3.0788502,23.503755 3.8044318,23.866546 l 4.1967213,2.098361 c 0.7255815,0.362791 1.0196815,1.245091 0.6568908,1.970672 -0.3627908,0.725582 -1.2450909,1.019682 -1.9706724,0.656891 z"
         id="Line"
         fill="#000000"
         fill-rule="nonzero" /><path
         d="M 2.0074456,33.452718 C 1.2708789,33.112783 0.94934472,32.240107 1.2892789,31.50354 1.629213,30.766974 2.5018894,30.445439 3.238456,30.785374 l 4.1967214,1.936836 c 0.7365666,0.339934 1.0581008,1.21261 0.7181667,1.949177 -0.3399342,0.736566 -1.2126105,1.058101 -1.9491772,0.718167 z"
         id="path228"
         fill="#000000"
         fill-rule="nonzero" /></g></g></svg>
