<svg width="325" height="325" viewBox="0 0 325 325" fill="none" xmlns="http://www.w3.org/2000/svg">
<g clip-path="url(#clip0_385_26)">
<path d="M0 162.5C0 252.246 72.7537 325 162.5 325C252.246 325 325 252.246 325 162.5C325 72.7537 252.246 0 162.5 0C72.7537 0 0 72.7537 0 162.5Z" fill="black"/>
<path d="M129.804 53L133.652 61.2055C141.349 77.5723 156.864 87.9068 173.813 87.9068H239.559L253.846 53H129.845H129.804Z" fill="white"/>
<path d="M86.2874 159.406L72 194.268H196.001L192.153 186.063C184.456 169.696 168.94 159.362 151.993 159.362H86.2874V159.406Z" fill="white"/>
<path d="M154.981 110.128L151.297 102.277C147.817 94.8259 140.735 90.1243 133.038 90.1243H114.657L100.37 125.031H152.648C160.344 125.031 167.426 129.733 170.906 137.184L174.59 145.035C178.07 152.486 185.152 157.188 192.849 157.188H211.23L225.517 122.281H173.24C165.543 122.281 158.461 117.58 154.981 110.128Z" fill="white"/>
<path d="M95.9775 278V276.74L101.497 275.84V232.16L95.9775 231.32V230H113.617V231.32L108.097 232.16V276.56H126.037L130.957 263.36H132.577V278H95.9775ZM141.441 278V276.74L146.961 275.84V231.5H137.061L132.501 243.38H130.761V230H169.821V243.38H168.021L163.521 231.5H153.561V275.84L159.081 276.74V278H141.441ZM173.673 278V276.74L179.193 275.84V232.16L173.673 231.32V230H209.793V243.74H208.173L203.553 231.5H185.793V254H195.933L199.473 245.3H201.093V264.26H199.473L195.933 255.44H185.793V275.84L191.313 276.74V278H173.673ZM214.885 278V276.8L219.085 276.2V231.8L214.885 231.2V230H225.085V276.2L229.285 276.8V278H214.885Z" fill="white"/>
</g>
<defs>
<clipPath id="clip0_385_26">
<rect width="325" height="325" fill="white"/>
</clipPath>
</defs>
</svg>
