<svg width="25" height="26" viewBox="0 0 25 26" fill="none" xmlns="http://www.w3.org/2000/svg">
<g clip-path="url(#clip0_10041_66607)">
<path d="M20.0537 22.468C22.4935 20.2773 24.1404 17.402 24.1404 13.8752C24.1404 10.3484 22.4935 7.69892 20.0537 5.5083" stroke="#EEEFF2"/>
<path d="M20.0541 5.51351C18.204 4.03956 15.8604 3.15869 13.3111 3.15869C7.33003 3.15869 2.48145 8.00729 2.48145 13.9883C2.48145 19.9694 7.33003 24.818 13.3111 24.818C15.8604 24.818 18.204 23.9371 20.0541 22.4631" stroke="url(#paint0_linear_10041_66607)"/>
<path d="M4.51235 9.02471C7.00446 9.02471 9.02471 7.00446 9.02471 4.51235C9.02471 2.02025 7.00446 0 4.51235 0C2.02025 0 0 2.02025 0 4.51235C0 7.00446 2.02025 9.02471 4.51235 9.02471Z" fill="#183779"/>
<path opacity="0.9" d="M2.4292 5.39095V6.79827C2.4292 6.88495 2.50276 6.9209 2.52564 6.92905C2.54853 6.93891 2.62534 6.9601 2.694 6.8964L3.8987 5.74236C4.00988 5.59854 4.05073 5.50862 4.05073 5.50862C4.11609 5.37619 4.11608 5.24873 4.05232 5.1212C3.95757 4.93163 3.71562 4.73875 3.35111 4.55566L2.7283 4.90216C2.54362 5.00678 2.4292 5.19152 2.4292 5.39095Z" fill="#A9D6FF"/>
<g filter="url(#filter0_d_10041_66607)">
<path d="M1.80518 2.26075V3.73679C1.80518 3.9215 1.92941 4.08495 2.10594 4.13726C2.70746 4.31053 3.75523 4.6832 4.00857 5.23079C4.04128 5.3027 4.06094 5.37302 4.06743 5.44658C4.23581 5.14087 4.31262 4.78947 4.27667 4.43312C4.22767 3.92803 3.95957 3.46872 3.54109 3.17612L2.04873 2.13489C2.02258 2.11528 1.99152 2.10547 1.96046 2.10547C1.93431 2.10547 1.91142 2.11037 1.8869 2.12345C1.83787 2.15124 1.80518 2.20191 1.80518 2.26075Z" fill="url(#paint1_linear_10041_66607)"/>
</g>
<path opacity="0.9" d="M6.40218 5.39095V6.79827C6.40218 6.88495 6.32862 6.9209 6.30577 6.92905C6.28286 6.93891 6.20605 6.9601 6.13739 6.8964L4.93269 5.74236C4.82152 5.59854 4.78066 5.50862 4.78066 5.50862C4.71531 5.37619 4.71531 5.24873 4.77907 5.1212C4.87383 4.93163 5.11577 4.73875 5.48028 4.55566L6.10309 4.90216C6.28942 5.00678 6.40218 5.19152 6.40218 5.39095Z" fill="#A9D6FF"/>
<g filter="url(#filter1_d_10041_66607)">
<path d="M7.02703 2.26075V3.73679C7.02703 3.9215 6.90281 4.08495 6.72628 4.13726C6.12473 4.31053 5.07702 4.6832 4.82362 5.23079C4.79091 5.3027 4.77131 5.37302 4.76476 5.44658C4.59644 5.14087 4.51956 4.78947 4.55558 4.43312C4.60458 3.92803 4.87268 3.46872 5.29109 3.17612L6.78349 2.13489C6.80965 2.11528 6.8407 2.10547 6.87176 2.10547C6.89791 2.10547 6.92082 2.11037 6.94532 2.12345C6.99438 2.15124 7.02703 2.20191 7.02703 2.26075Z" fill="url(#paint2_linear_10041_66607)"/>
</g>
<g clip-path="url(#clip1_10041_66607)">
<path d="M13.23 21.5C17.3863 21.5 20.73 18.1563 20.73 14C20.73 9.84372 17.3863 6.5 13.23 6.5C9.07371 6.5 5.72998 9.84372 5.72998 14C5.72998 18.1563 9.07371 21.5 13.23 21.5Z" fill="#2775CA"/>
<path d="M15.2925 15.1875C15.2925 14.0938 14.6362 13.7188 13.3237 13.5626C12.3862 13.4375 12.1987 13.1876 12.1987 12.75C12.1987 12.3125 12.5112 12.0313 13.1362 12.0313C13.6987 12.0313 14.0112 12.2188 14.1675 12.6875C14.1987 12.7813 14.2925 12.8438 14.3862 12.8438H14.8862C15.0112 12.8438 15.105 12.75 15.105 12.6251V12.5938C14.9799 11.9063 14.4174 11.375 13.6987 11.3126V10.5625C13.6987 10.4375 13.605 10.3438 13.4487 10.3125H12.98C12.855 10.3125 12.7612 10.4062 12.7299 10.5625V11.2813C11.7924 11.4063 11.1987 12.0313 11.1987 12.8126C11.1987 13.8438 11.8237 14.25 13.1362 14.4063C14.0112 14.5625 14.2925 14.75 14.2925 15.2501C14.2925 15.7501 13.8549 16.0938 13.2612 16.0938C12.4487 16.0938 12.1674 15.75 12.0737 15.2812C12.0425 15.1563 11.9487 15.0938 11.855 15.0938H11.3237C11.1987 15.0938 11.105 15.1875 11.105 15.3125V15.3438C11.2299 16.125 11.73 16.6875 12.7612 16.8438V17.5938C12.7612 17.7188 12.855 17.8125 13.0112 17.8438H13.4799C13.605 17.8438 13.6987 17.75 13.73 17.5938V16.8438C14.6675 16.6875 15.2925 16.0312 15.2925 15.1875Z" fill="white"/>
<path d="M11.6364 18.4687C9.19885 17.5938 7.94883 14.875 8.85513 12.4687C9.32388 11.1562 10.3551 10.1562 11.6364 9.68747C11.7614 9.625 11.8239 9.53125 11.8239 9.37495V8.93747C11.8239 8.81245 11.7614 8.7187 11.6364 8.6875C11.6051 8.6875 11.5426 8.6875 11.5113 8.7187C8.5426 9.6562 6.91758 12.8125 7.85508 15.7812C8.41758 17.5312 9.76135 18.875 11.5113 19.4375C11.6364 19.5 11.7614 19.4375 11.7926 19.3124C11.8239 19.2812 11.8239 19.25 11.8239 19.1875V18.7499C11.8239 18.6562 11.7301 18.5312 11.6364 18.4687ZM14.9489 8.7187C14.8239 8.65622 14.6988 8.7187 14.6676 8.84372C14.6364 8.875 14.6364 8.9062 14.6364 8.96875V9.40622C14.6364 9.53125 14.7301 9.6562 14.8239 9.71875C17.2614 10.5937 18.5114 13.3125 17.6051 15.7188C17.1363 17.0312 16.1051 18.0312 14.8239 18.5C14.6988 18.5625 14.6364 18.6562 14.6364 18.8125V19.25C14.6364 19.375 14.6988 19.4688 14.8239 19.4999C14.8551 19.4999 14.9176 19.5 14.9489 19.4688C17.9176 18.5312 19.5426 15.3749 18.6051 12.4062C18.0426 10.625 16.6676 9.2812 14.9489 8.7187Z" fill="white"/>
</g>
</g>
<defs>
<filter id="filter0_d_10041_66607" x="-8.19482" y="-3.89453" width="22.48" height="23.3413" filterUnits="userSpaceOnUse" color-interpolation-filters="sRGB">
<feFlood flood-opacity="0" result="BackgroundImageFix"/>
<feColorMatrix in="SourceAlpha" type="matrix" values="0 0 0 0 0 0 0 0 0 0 0 0 0 0 0 0 0 0 127 0" result="hardAlpha"/>
<feOffset dy="4"/>
<feGaussianBlur stdDeviation="5"/>
<feComposite in2="hardAlpha" operator="out"/>
<feColorMatrix type="matrix" values="0 0 0 0 0 0 0 0 0 0 0 0 0 0 0 0 0 0 0.2 0"/>
<feBlend mode="normal" in2="BackgroundImageFix" result="effect1_dropShadow_10041_66607"/>
<feBlend mode="normal" in="SourceGraphic" in2="effect1_dropShadow_10041_66607" result="shape"/>
</filter>
<filter id="filter1_d_10041_66607" x="-5.45312" y="-3.89453" width="22.48" height="23.3413" filterUnits="userSpaceOnUse" color-interpolation-filters="sRGB">
<feFlood flood-opacity="0" result="BackgroundImageFix"/>
<feColorMatrix in="SourceAlpha" type="matrix" values="0 0 0 0 0 0 0 0 0 0 0 0 0 0 0 0 0 0 127 0" result="hardAlpha"/>
<feOffset dy="4"/>
<feGaussianBlur stdDeviation="5"/>
<feComposite in2="hardAlpha" operator="out"/>
<feColorMatrix type="matrix" values="0 0 0 0 0 0 0 0 0 0 0 0 0 0 0 0 0 0 0.2 0"/>
<feBlend mode="normal" in2="BackgroundImageFix" result="effect1_dropShadow_10041_66607"/>
<feBlend mode="normal" in="SourceGraphic" in2="effect1_dropShadow_10041_66607" result="shape"/>
</filter>
<linearGradient id="paint0_linear_10041_66607" x1="18.3172" y1="3.15869" x2="7.38545" y2="21.6508" gradientUnits="userSpaceOnUse">
<stop stop-color="#68CCA5"/>
<stop offset="1" stop-color="#8E8FED"/>
</linearGradient>
<linearGradient id="paint1_linear_10041_66607" x1="4.36493" y1="5.42507" x2="1.80518" y2="5.42507" gradientUnits="userSpaceOnUse">
<stop offset="0.0677083" stop-color="#EFFDFF"/>
<stop offset="1" stop-color="#A9D6FF"/>
</linearGradient>
<linearGradient id="paint2_linear_10041_66607" x1="4.5538" y1="5.42507" x2="7.00743" y2="5.42507" gradientUnits="userSpaceOnUse">
<stop offset="0.0677083" stop-color="#EFFDFF"/>
<stop offset="1" stop-color="#A9D6FF"/>
</linearGradient>
<clipPath id="clip0_10041_66607">
<rect width="25" height="26" fill="white"/>
</clipPath>
<clipPath id="clip1_10041_66607">
<rect width="15" height="15" fill="white" transform="translate(5.72998 6.5)"/>
</clipPath>
</defs>
</svg>
