<svg width="150" height="150" viewBox="0 0 150 150" fill="none" xmlns="http://www.w3.org/2000/svg">
<rect width="150" height="150" rx="75" fill="url(#paint0_radial_8179_1361)"/>
<path d="M53.3816 40.3252C54.0968 40.3252 54.6765 40.905 54.6765 41.6201V64.0449C54.6765 64.4173 54.8819 64.7597 55.2107 64.9346L60.0798 67.5225C60.4016 67.6935 60.7909 67.6775 61.0974 67.4805L73.905 59.2451C74.3179 58.9798 74.8455 58.9708 75.2673 59.2217L89.1775 67.502C89.487 67.686 89.8713 67.6909 90.1853 67.5146L94.7722 64.9404C95.0898 64.7622 95.2869 64.4267 95.2869 64.0625V41.6201C95.2869 40.905 95.8666 40.3252 96.5818 40.3252H105.694C106.409 40.3253 106.989 40.905 106.989 41.6201V70.8691C106.989 71.3204 106.754 71.7395 106.369 71.9746L75.281 90.9521C74.8529 91.2135 74.312 91.2047 73.8933 90.9287L65.3337 85.2812C64.5338 84.7534 64.5641 83.5696 65.3904 83.084L77.7468 75.8213C78.415 75.4285 78.4082 74.4598 77.7341 74.0771L75.1121 72.5889C74.7883 72.4051 74.3893 72.4148 74.075 72.6143L55.1443 84.6299C54.8532 84.8146 54.6765 85.1357 54.6765 85.4805V108.38C54.6765 109.095 54.0968 109.675 53.3816 109.675H43.95C43.2348 109.675 42.655 109.095 42.655 108.38V79.0977C42.6552 78.6668 42.8698 78.264 43.2273 78.0234L46.5476 75.7891C47.147 75.3859 47.14 74.5014 46.5339 74.1084L43.2449 71.9756C42.8769 71.7369 42.6551 71.3282 42.655 70.8896V41.6201C42.655 40.905 43.2348 40.3252 43.95 40.3252H53.3816ZM105.052 77.9697C105.915 77.4764 106.989 78.0995 106.989 79.0938V108.38C106.989 109.095 106.409 109.675 105.694 109.675H96.5818C95.8666 109.675 95.2869 109.095 95.2869 108.38V84.3008C95.2869 83.8361 95.5358 83.4073 95.9392 83.1768L105.052 77.9697Z" fill="white" stroke="white" stroke-width="0.28776"/>
<defs>
<radialGradient id="paint0_radial_8179_1361" cx="0" cy="0" r="1" gradientUnits="userSpaceOnUse" gradientTransform="translate(35.3125 10.625) rotate(64.4069) scale(148.301)">
<stop stop-color="#C4B19F"/>
<stop offset="0.265908" stop-color="#A08472"/>
<stop offset="0.74564" stop-color="#584656"/>
<stop offset="1" stop-color="#3E3548"/>
</radialGradient>
</defs>
</svg>
