<svg width="1920" height="422" viewBox="0 0 1920 422" fill="none" xmlns="http://www.w3.org/2000/svg">
<g clip-path="url(#clip0_702_829)">
<path d="M646.128 219.967C634.752 200.233 618.624 169.099 607.92 146.683H607.248C608.256 171.446 608.592 202.197 608.592 223.272V311.26H572.064V110.568H628.368L671.952 189.169C685.68 213.932 701.136 244.012 711.84 266.093H712.176C711.84 243.006 711.504 218.243 711.504 198.509V110.568H748.032V311.26H698.064L646.08 219.919L646.128 219.967Z" fill="#2B2624"/>
<path d="M974.4 214.267C974.4 175.805 951.6 145.007 909.36 145.007C867.12 145.007 844.32 175.805 844.32 214.267C844.32 256.417 866.784 285.539 909.36 285.539C951.936 285.539 974.4 256.417 974.4 214.267ZM806.448 214.602C806.448 154.73 846.672 110.568 909.36 110.568C972.048 110.568 1012.61 154.73 1012.61 214.602C1012.61 274.475 974.064 319.978 909.36 319.978C844.656 319.978 806.448 274.81 806.448 214.602Z" fill="#2B2624"/>
<path d="M1065.12 249.041L1101.98 241.665C1107.36 270.116 1126.8 286.832 1157.62 286.832C1183.44 286.832 1196.83 276.774 1196.83 260.728C1196.83 244.682 1185.12 235.965 1147.2 230.265C1091.57 221.548 1073.76 199.131 1073.76 168.716C1073.76 133.272 1099.92 110.521 1148.83 110.521C1201.82 110.521 1223.28 138.972 1230.96 175.757L1193.42 183.469C1187.04 157.029 1175.66 142.995 1147.15 142.995C1124.69 142.995 1112.3 153.006 1112.3 168.094C1112.3 181.457 1119.7 191.18 1163.95 198.557C1220.59 207.609 1235.71 230.984 1235.71 259.435C1235.71 295.55 1210.56 319.978 1155.26 319.978C1094.26 319.642 1069.78 287.886 1065.07 249.041" fill="#2B2624"/>
<path d="M1283.76 110.568H1446V146.683H1383.98V311.26H1345.78V146.683H1283.76V110.568Z" fill="#2B2624"/>
<path d="M1541.38 144.336V197.886H1586.98C1610.11 197.886 1623.17 187.828 1623.17 169.77C1623.17 153.724 1613.76 144.336 1588.99 144.336H1541.38ZM1574.88 231.654H1541.38V311.26H1503.17V110.568H1590.67C1637.95 110.568 1660.75 132.314 1660.75 168.764C1660.75 200.904 1644.34 221.308 1614.82 228.636L1673.81 310.59V311.26H1627.54L1574.88 231.654V231.654Z" fill="#2B2624"/>
<path d="M1785.89 230.313H1848.58L1839.84 206.891C1832.45 187.828 1824.77 167.088 1818.38 148.024H1816.03C1809.65 167.088 1801.97 187.828 1794.58 206.891L1785.84 230.313H1785.89ZM1860.34 261.446H1773.84L1755.07 311.308H1715.52L1795.97 110.568H1839.55L1920 311.308H1878.77L1860.34 261.446Z" fill="#2B2624"/>
<path d="M0 271.313L149.76 185.049L0 98.7376V271.313ZM187.056 206.508L0 314.278L187.056 422.048L374.064 314.278V98.7376L187.056 206.508ZM184.704 62L98.88 112.772L187.008 163.543L275.136 112.772L184.656 62H184.704Z" fill="#FF4240"/>
</g>
<defs>
<clipPath id="clip0_702_829">
<rect width="1920" height="422" fill="white"/>
</clipPath>
</defs>
</svg>
