<svg width="37" height="37" viewBox="0 0 37 37" fill="none" xmlns="http://www.w3.org/2000/svg">
<g clip-path="url(#clip0_7093_11206)">
<path d="M18.5 37C28.7173 37 37 28.7173 37 18.5C37 8.28273 28.7173 0 18.5 0C8.28273 0 0 8.28273 0 18.5C0 28.7173 8.28273 37 18.5 37Z" fill="url(#paint0_radial_7093_11206)"/>
<path d="M11.4247 23.3637H8.79199C9.00686 27.4739 12.4455 31.0469 18.5436 31.0469C24.615 31.0469 28.4834 27.7157 28.4834 23.4174C28.4834 15.2507 16.1528 15.7074 16.1528 10.9793C16.1528 9.66296 17.1467 8.10479 19.457 8.10479C22.036 8.10479 25.0717 10.1197 25.2866 12.6986H27.8924C27.6238 8.53461 23.5673 5.6333 18.4093 5.6333C13.0634 5.6333 9.03374 8.74956 9.03374 13.1553C9.03374 21.5638 21.3644 20.4623 21.3644 25.6471C21.3644 27.259 20.3704 28.6022 17.8721 28.6022C14.7558 28.6022 11.6127 26.4262 11.4247 23.3637ZM13.6275 11.5972C13.6275 17.9908 25.8508 16.7282 25.8508 23.5518C25.8508 25.5934 24.5075 27.3934 22.8957 27.85C23.4598 27.3127 23.8896 26.1307 23.8896 25.0024C23.8896 18.6894 11.6395 19.549 11.6395 13.0747C11.6395 10.8987 13.0365 9.1525 14.7827 8.61525C14.111 9.42113 13.6275 10.4688 13.6275 11.5972Z" fill="white"/>
</g>
<circle cx="18.5" cy="18.5" r="17.5" stroke="#1BE3C2" stroke-width="2"/>
<g clip-path="url(#clip1_7093_11206)">
<path d="M29 37C33.4079 37 36.9813 33.4183 36.9813 29C36.9813 24.5817 33.4079 21 29 21C24.5921 21 21.0187 24.5817 21.0187 29C21.0187 33.4183 24.5921 37 29 37Z" fill="url(#paint1_linear_7093_11206)"/>
<path d="M30.6488 29.7859H35.1959C35.3707 29.7859 35.406 29.5472 35.2469 29.4743L30.649 27.3753V22.7997C30.649 22.6289 30.4211 22.5728 30.3425 22.7244L28.4523 26.3724L26.3576 25.4082C26.1572 25.327 26.0342 25.4906 26.1022 25.6311L27.3513 28.2138H22.8042C22.6293 28.2138 22.594 28.4524 22.7531 28.5253L27.351 30.6244V35.2C27.351 35.3708 27.5789 35.4268 27.6575 35.2753L29.5477 31.6272L31.6424 32.5915C31.8428 32.6726 31.9658 32.5091 31.8978 32.3685L30.6488 29.7859Z" fill="white"/>
</g>
<defs>
<radialGradient id="paint0_radial_7093_11206" cx="0" cy="0" r="1" gradientUnits="userSpaceOnUse" gradientTransform="translate(18.5 42.8855) rotate(-90) scale(59.2835)">
<stop stop-color="#FFD232"/>
<stop offset="1" stop-color="#FF6D6D"/>
</radialGradient>
<linearGradient id="paint1_linear_7093_11206" x1="35.3709" y1="22.2121" x2="22.0479" y2="35.1602" gradientUnits="userSpaceOnUse">
<stop stop-color="#FA43BD"/>
<stop offset="1" stop-color="#FFA930"/>
</linearGradient>
<clipPath id="clip0_7093_11206">
<rect width="37" height="37" fill="white"/>
</clipPath>
<clipPath id="clip1_7093_11206">
<rect width="16" height="16" fill="white" transform="translate(21 21)"/>
</clipPath>
</defs>
</svg>
