<svg width="223" height="214" viewBox="0 0 223 214" fill="none" xmlns="http://www.w3.org/2000/svg">
<path d="M158.561 41.6497C163.313 45.6306 199.106 82.1947 222.117 105.205C187.051 133.697 154.178 88.7694 131.167 72.3317C108.155 55.8939 87.3353 95.3431 87.3353 95.3431C68.7068 60.2791 118.017 7.6815 158.561 41.6497Z" fill="url(#paint0_linear_1_16)" fill-opacity="0.6"/>
<path d="M173.615 149.795C169.634 154.546 133.07 190.34 110.06 213.35C81.5683 178.285 126.495 145.412 142.933 122.4C159.371 99.3891 119.922 78.569 119.922 78.569C154.986 59.9405 207.583 109.251 173.615 149.795Z" fill="url(#paint1_linear_1_16)" fill-opacity="0.6"/>
<path d="M63.5554 170.424C58.8038 166.443 23.0104 129.879 -3.92613e-05 106.869C35.0652 78.3772 67.9387 123.304 90.95 139.742C113.961 156.18 134.781 116.731 134.781 116.731C153.41 151.795 104.1 204.392 63.5554 170.424Z" fill="url(#paint2_linear_1_16)" fill-opacity="0.6"/>
<path d="M46.0331 63.5557C50.014 58.8041 86.5781 23.0107 109.589 0.000208137C138.08 35.0655 93.1528 67.9389 76.715 90.9502C60.2773 113.962 99.7265 134.782 99.7265 134.782C64.6624 153.41 12.0649 104.1 46.0331 63.5557Z" fill="url(#paint3_linear_1_16)" fill-opacity="0.6"/>
<circle cx="109.578" cy="105.196" r="36.3735" fill="url(#paint4_linear_1_16)" stroke="#E6E6F2" stroke-width="7"/>
<defs>
<linearGradient id="paint0_linear_1_16" x1="121.632" y1="65.7467" x2="187.5" y2="54.5" gradientUnits="userSpaceOnUse">
<stop stop-color="#484F6C"/>
<stop offset="1" stop-color="#0D1330"/>
</linearGradient>
<linearGradient id="paint1_linear_1_16" x1="149.518" y1="112.866" x2="156.093" y2="189.57" gradientUnits="userSpaceOnUse">
<stop stop-color="#484F6C"/>
<stop offset="1" stop-color="#0D1330"/>
</linearGradient>
<linearGradient id="paint2_linear_1_16" x1="100.485" y1="146.327" x2="23.7799" y2="152.902" gradientUnits="userSpaceOnUse">
<stop stop-color="#484F6C"/>
<stop offset="1" stop-color="#0D1330"/>
</linearGradient>
<linearGradient id="paint3_linear_1_16" x1="70.1301" y1="100.485" x2="63.5554" y2="23.7802" gradientUnits="userSpaceOnUse">
<stop stop-color="#484F6C"/>
<stop offset="1" stop-color="#0D1330"/>
</linearGradient>
<linearGradient id="paint4_linear_1_16" x1="93.4999" y1="76.5" x2="131.5" y2="130.5" gradientUnits="userSpaceOnUse">
<stop stop-color="#20294F"/>
<stop offset="1" stop-color="#6A6E84"/>
</linearGradient>
</defs>
</svg>
