<svg width="932" height="932" viewBox="0 0 932 932" fill="none" xmlns="http://www.w3.org/2000/svg">
<path d="M466 931.83C723.271 931.83 931.83 723.271 931.83 466C931.83 208.729 723.271 0.169922 466 0.169922C208.729 0.169922 0.169922 208.729 0.169922 466C0.169922 723.271 208.729 931.83 466 931.83Z" fill="#FFBF42"/>
<path d="M625.58 307.06L658.23 220.18H604.59L583.05 277.31C571.25 271.12 558.85 266.13 546.05 262.43L561.98 220.13H508.34L495.33 254.64C493.63 254.64 491.9 254.55 490.16 254.55H427.84C419.56 253.51 411.41 251.64 403.51 248.98C400.76 248.06 398.08 247.08 395.43 245.98L377.73 292.9L240.7 656.55H343.91L323.05 711.86H376.69L397.56 656.55H440.18L419.32 711.86H472.96L493.82 656.51C604.75 654.62 693.14 563.16 691.25 452.23C690.31 396.85 666.54 344.33 625.57 307.06H625.58ZM313.25 606.37L426.93 304.82C432.04 305.3 437.16 305.51 442.27 305.51C447.38 305.51 452.76 305.27 457.87 304.78H476.53L362.86 606.37H313.25ZM416.46 606.37L528.39 309.64C541.3 313.04 553.71 318.14 565.28 324.8L459.06 606.37H416.46ZM596.91 562.16C574.33 584.89 545.04 599.77 513.37 604.6L605.98 358.96C656.06 418.81 652.12 507 596.91 562.16Z" fill="#162061"/>
</svg>
