<svg width="32" height="32" viewBox="0 0 32 32" fill="none" xmlns="http://www.w3.org/2000/svg">
<g clip-path="url(#clip0_13184_32880)">
<path d="M16 32C24.8366 32 32 24.8366 32 16C32 7.16344 24.8366 0 16 0C7.16344 0 0 7.16344 0 16C0 24.8366 7.16344 32 16 32Z" fill="#16BB9D"/>
<path d="M25.0792 22.4859L15.999 7.7832L14.4453 10.3L21.971 22.4859H25.0792Z" fill="white"/>
<path d="M10.0262 22.4869L13.5393 16.7983L17.0524 22.4869H20.1606L13.5393 11.7656L6.91797 22.4869H10.0262Z" fill="white"/>
<g clip-path="url(#clip1_13184_32880)">
<path d="M16 32C24.8366 32 32 24.8366 32 16C32 7.16344 24.8366 0 16 0C7.16344 0 0 7.16344 0 16C0 24.8366 7.16344 32 16 32Z" fill="#16BB9D"/>
<path d="M16 1.34961C24.091 1.34961 30.6504 7.90903 30.6504 16C30.6504 24.091 24.091 30.6504 16 30.6504C7.90903 30.6504 1.34961 24.091 1.34961 16C1.34961 7.90903 7.90903 1.34961 16 1.34961Z" stroke="#04A487" stroke-width="0.7"/>
<path d="M19.3759 15.5201L13.2088 14.4329C11.8643 14.1956 10.9638 12.91 11.2011 11.5655C11.4385 10.221 12.7241 9.32045 14.0686 9.55778L23.6667 11.2505L24.0168 9.26534L14.4187 7.57266C11.9795 7.14244 9.64624 8.77626 9.21602 11.2154C8.7858 13.6545 10.4196 15.9878 12.8588 16.4181L19.0258 17.5052C20.3703 17.7425 21.2708 19.0282 21.0335 20.3727L21.0272 20.4096C20.7899 21.7541 19.5042 22.6546 18.1597 22.4173L11.1604 21.183L11.5468 18.9918L7.09375 21.5111L10.424 25.358L10.8104 23.1669L17.8097 24.4012C20.2488 24.8314 22.5821 23.1975 23.0123 20.7584L23.0186 20.7215C23.4488 18.2823 21.815 15.949 19.3759 15.5188V15.5201Z" fill="white"/>
<path d="M14.4756 22.62L13.8008 26.4473L14.7147 26.6084L15.3896 22.7811L14.4756 22.62Z" fill="white"/>
<path d="M17.4582 5.69681L16.8555 9.11523L17.7694 9.27639L18.3722 5.85797L17.4582 5.69681Z" fill="white"/>
</g>
</g>
<defs>
<clipPath id="clip0_13184_32880">
<rect width="32" height="32" fill="white"/>
</clipPath>
<clipPath id="clip1_13184_32880">
<rect width="32" height="32" fill="white"/>
</clipPath>
</defs>
</svg>
