<svg width="1000" height="1000" viewBox="0 0 1000 1000" fill="none" xmlns="http://www.w3.org/2000/svg">
<circle cx="500" cy="500" r="500" fill="black"/>
<path d="M660.25 702.842V778H821V222H660.25V297.157H743.075V702.842H660.25Z" fill="white"/>
<path d="M338.751 297.157V222H178V778H338.751V702.842H255.926V297.157H338.751Z" fill="white"/>
<path d="M564 534.525C564 500.982 543.623 489.484 502.869 484.684C473.769 480.846 467.958 473.186 467.958 459.763C467.958 446.339 477.669 437.716 497.059 437.716C514.522 437.716 524.233 443.465 529.073 457.852C529.576 459.243 530.498 460.448 531.714 461.302C532.928 462.158 534.379 462.624 535.87 462.637H551.392C552.288 462.661 553.18 462.504 554.014 462.176C554.846 461.847 555.604 461.353 556.239 460.726C556.874 460.099 557.376 459.349 557.71 458.524C558.046 457.698 558.209 456.814 558.189 455.925V454.977C556.292 444.568 550.983 435.072 543.087 427.964C535.191 420.856 525.149 416.535 514.522 415.669V392.675C514.522 388.838 511.609 385.963 506.77 385H492.203C488.335 385 485.422 387.874 484.45 392.675V414.722C455.334 418.544 436.915 437.716 436.915 461.689C436.915 493.306 456.305 505.767 497.059 510.568C524.233 515.353 532.957 521.117 532.957 536.452C532.957 551.771 519.378 562.321 500.943 562.321C475.711 562.321 466.987 551.787 464.074 537.4C463.118 533.578 460.189 531.651 457.276 531.651H440.783C439.887 531.629 438.997 531.788 438.166 532.119C437.334 532.447 436.579 532.941 435.944 533.568C435.31 534.195 434.812 534.944 434.478 535.768C434.143 536.593 433.981 537.475 434.002 538.363V539.311C437.87 563.284 453.408 580.53 485.422 585.331V608.341C485.422 612.162 488.335 615.052 493.174 616H507.741C511.609 616 514.522 613.126 515.493 608.341V585.315C544.61 580.53 564 560.394 564 534.51V534.525Z" fill="white"/>
<path d="M450.192 636.143C374.772 609.105 336.094 525.128 364.143 450.805C378.643 410.247 410.546 379.376 450.192 364.887C454.063 362.963 455.983 360.068 455.983 355.233V341.714C455.983 337.865 454.063 334.97 450.192 334C449.224 334 447.289 334 446.321 334.954C424.563 341.767 404.362 352.827 386.884 367.498C369.405 382.169 354.995 400.162 344.481 420.439C333.967 440.718 327.559 462.879 325.624 485.65C323.689 508.421 326.266 531.351 333.207 553.12C350.595 607.196 392.176 648.708 446.321 666.076C450.192 668 454.063 666.076 455.015 662.211C455.983 661.256 455.983 660.27 455.983 658.346V644.827C455.983 641.932 453.095 638.083 450.192 636.143ZM552.678 334.97C548.807 333.03 544.936 334.97 543.984 338.819C543.016 339.789 543.016 340.76 543.016 342.684V356.203C543.016 360.068 545.904 363.917 548.807 365.857C624.227 392.895 662.905 476.872 634.857 551.195C620.356 591.753 588.453 622.624 548.807 637.113C544.936 639.037 543.016 641.932 543.016 646.767V660.286C543.016 664.135 544.936 667.03 548.807 668C549.775 668 551.71 668 552.678 667.046C574.438 660.234 594.638 649.174 612.116 634.501C629.594 619.831 644.006 601.838 654.519 581.561C665.033 561.282 671.442 539.121 673.376 516.35C675.311 493.579 672.733 470.649 665.793 448.88C648.405 393.85 605.856 352.338 552.678 334.97Z" fill="white"/>
</svg>
