<svg width="748" height="748" viewBox="0 0 748 748" fill="none" xmlns="http://www.w3.org/2000/svg">
<rect x="0.666016" y="0.402344" width="746.768" height="746.768" rx="373.384" fill="black"/>
<path fill-rule="evenodd" clip-rule="evenodd" d="M247.004 470.456L421.302 221.533C436.763 199.451 467.198 194.085 489.279 209.546C511.36 225.008 516.726 255.442 501.265 277.523L326.967 526.447C311.505 548.528 281.071 553.895 258.99 538.433C236.909 522.972 231.542 492.537 247.004 470.456ZM524.785 158.838C574.872 193.909 587.044 262.943 551.973 313.029L377.675 561.953C342.604 612.04 273.57 624.212 223.484 589.141C173.397 554.07 161.225 485.037 196.296 434.95L370.594 186.026C405.665 135.94 474.699 123.767 524.785 158.838Z" fill="white"/>
</svg>
